<svg xmlns="http://www.w3.org/2000/svg" viewBox="0 0 500 372.609"><g id="Background_Complete" data-name="Background Complete"><rect y="327.446" width="500" height="0.25" fill="#ebebeb"/><rect x="416.779" y="343.542" width="33.122" height="0.25" fill="#ebebeb"/><rect x="322.527" y="346.255" width="8.693" height="0.25" fill="#ebebeb"/><rect x="396.586" y="334.256" width="19.192" height="0.25" fill="#ebebeb"/><rect x="52.459" y="335.936" width="43.193" height="0.25" fill="#ebebeb"/><rect x="104.556" y="335.936" width="6.333" height="0.25" fill="#ebebeb"/><rect x="131.471" y="340.158" width="93.676" height="0.25" fill="#ebebeb"/><path d="M237.014,337.8H43.915a5.715,5.715,0,0,1-5.708-5.708V60.66a5.714,5.714,0,0,1,5.708-5.707h193.1a5.714,5.714,0,0,1,5.707,5.707V332.092A5.715,5.715,0,0,1,237.014,337.8ZM43.915,55.2a5.463,5.463,0,0,0-5.458,5.457V332.092a5.464,5.464,0,0,0,5.458,5.458h193.1a5.463,5.463,0,0,0,5.457-5.458V60.66a5.463,5.463,0,0,0-5.457-5.457Z" transform="translate(0 -54.953)" fill="#ebebeb"/><path d="M453.31,337.8h-193.1a5.714,5.714,0,0,1-5.707-5.708V60.66a5.713,5.713,0,0,1,5.707-5.707h193.1a5.714,5.714,0,0,1,5.709,5.707V332.092A5.715,5.715,0,0,1,453.31,337.8ZM260.212,55.2a5.463,5.463,0,0,0-5.457,5.457V332.092a5.463,5.463,0,0,0,5.457,5.458h193.1a5.464,5.464,0,0,0,5.459-5.458V60.66A5.464,5.464,0,0,0,453.31,55.2Z" transform="translate(0 -54.953)" fill="#ebebeb"/><rect x="289.691" y="83.832" width="137.781" height="90.227" transform="translate(717.162 202.938) rotate(180)" fill="#e6e6e6"/><rect x="285.487" y="83.832" width="140.02" height="90.227" transform="translate(710.994 202.938) rotate(180)" fill="#f0f0f0"/><rect x="289.691" y="174.059" width="137.781" height="17.708" transform="translate(717.162 310.872) rotate(180)" fill="#e6e6e6"/><rect x="278.483" y="174.059" width="140.02" height="17.708" transform="translate(696.987 310.872) rotate(180)" fill="#f0f0f0"/><rect x="316.269" y="64.82" width="78.456" height="128.249" transform="translate(484.442 -281.504) rotate(90)" fill="#fafafa"/><polygon points="390.702 113.221 374.322 34.765 348.761 34.765 365.141 113.221 390.702 113.221" fill="#fff"/><path d="M416.9,162.315a.42.42,0,0,0,.42-.42V93.546a.421.421,0,0,0-.841,0V161.9A.421.421,0,0,0,416.9,162.315Z" transform="translate(0 -54.953)" fill="#f0f0f0"/><polygon points="359.65 113.221 343.27 34.765 333.304 34.765 349.685 113.221 359.65 113.221" fill="#fff"/><rect x="252.518" y="128.571" width="78.456" height="0.747" transform="translate(420.691 -217.753) rotate(90)" fill="#e6e6e6"/><polygon points="284.095 43.639 421.876 43.639 422.417 37.052 284.636 37.052 284.095 43.639" fill="#ebebeb" opacity="0.6"/><polygon points="284.095 54.441 421.876 54.441 422.417 47.855 284.636 47.855 284.095 54.441" fill="#ebebeb" opacity="0.6"/><polygon points="284.095 65.243 421.876 65.243 422.417 58.657 284.636 58.657 284.095 65.243" fill="#ebebeb" opacity="0.6"/><polygon points="284.095 76.045 421.876 76.045 422.417 69.458 284.636 69.458 284.095 76.045" fill="#ebebeb" opacity="0.6"/><polygon points="284.095 86.847 421.876 86.847 422.417 80.261 284.636 80.261 284.095 86.847" fill="#ebebeb" opacity="0.6"/><polygon points="284.095 97.649 421.876 97.649 422.417 91.063 284.636 91.063 284.095 97.649" fill="#ebebeb" opacity="0.6"/><rect x="378.799" y="261.829" width="28.889" height="5.696" fill="#e6e6e6"/><rect x="324.307" y="251.333" width="5.333" height="131.065" transform="translate(653.948 578.779) rotate(180)" fill="#e6e6e6"/><rect x="305.836" y="316.781" width="72.963" height="5.696" transform="translate(684.635 584.306) rotate(180)" fill="#f5f5f5"/><rect x="378.799" y="292.995" width="28.889" height="5.696" fill="#e6e6e6"/><rect x="305.836" y="347.948" width="72.963" height="5.696" transform="translate(684.635 646.639) rotate(180)" fill="#f5f5f5"/><rect x="378.799" y="199.495" width="28.889" height="5.696" fill="#e6e6e6"/><rect x="305.836" y="254.448" width="72.963" height="5.696" transform="translate(684.635 459.639) rotate(180)" fill="#f5f5f5"/><rect x="378.799" y="230.662" width="28.889" height="5.696" fill="#e6e6e6"/><rect x="305.836" y="285.615" width="72.963" height="5.696" transform="translate(684.635 521.972) rotate(180)" fill="#f5f5f5"/><rect x="397.271" y="251.333" width="5.333" height="131.065" transform="translate(799.875 578.779) rotate(180)" fill="#e6e6e6"/><rect x="373.466" y="251.333" width="5.333" height="131.065" transform="translate(752.265 578.779) rotate(180)" fill="#f5f5f5"/><rect x="305.836" y="251.333" width="5.333" height="131.065" transform="translate(617.004 578.779) rotate(180)" fill="#f5f5f5"/><rect x="65.374" y="276.507" width="54.578" height="105.892" transform="translate(185.325 603.954) rotate(180)" fill="#e6e6e6"/><polygon points="79.948 327.447 65.374 327.447 65.374 312.829 95.228 312.829 79.948 327.447" fill="#fafafa"/><rect x="214.184" y="276.507" width="54.578" height="105.892" transform="translate(482.945 603.954) rotate(180)" fill="#e6e6e6"/><rect x="65.374" y="276.507" width="161.529" height="100.861" transform="translate(292.276 598.922) rotate(180)" fill="#fafafa"/><polygon points="212.329 327.447 226.903 327.447 226.903 312.829 197.048 312.829 212.329 327.447" fill="#fafafa"/><rect x="76.68" y="314.091" width="138.917" height="25.241" transform="translate(292.276 598.47) rotate(180)" fill="#f0f0f0"/><rect x="76.68" y="344.726" width="138.917" height="25.241" transform="translate(292.276 659.741) rotate(180)" fill="#f0f0f0"/><path d="M103.084,311.9h86.108a4.576,4.576,0,0,1,4.576,4.576v.308a0,0,0,0,1,0,0H98.508a0,0,0,0,1,0,0v-.308A4.576,4.576,0,0,1,103.084,311.9Z" transform="translate(292.276 573.742) rotate(180)" fill="#fafafa"/><rect x="76.68" y="283.455" width="138.917" height="25.241" transform="translate(292.276 537.198) rotate(180)" fill="#f0f0f0"/><path d="M103.084,281.269h86.108a4.576,4.576,0,0,1,4.576,4.576v.308a0,0,0,0,1,0,0H98.508a0,0,0,0,1,0,0v-.308A4.576,4.576,0,0,1,103.084,281.269Z" transform="translate(292.276 512.471) rotate(180)" fill="#fafafa"/><path d="M103.084,342.54h86.108a4.576,4.576,0,0,1,4.576,4.576v.308a0,0,0,0,1,0,0H98.508a0,0,0,0,1,0,0v-.308A4.576,4.576,0,0,1,103.084,342.54Z" transform="translate(292.276 635.013) rotate(180)" fill="#fafafa"/><rect x="74.068" y="83.832" width="137.781" height="90.227" transform="translate(285.917 202.938) rotate(180)" fill="#e6e6e6"/><rect x="69.864" y="83.832" width="140.02" height="90.227" transform="translate(279.749 202.938) rotate(180)" fill="#f0f0f0"/><rect x="74.068" y="174.059" width="137.781" height="17.708" transform="translate(285.917 310.872) rotate(180)" fill="#e6e6e6"/><rect x="62.86" y="174.059" width="140.02" height="17.708" transform="translate(265.741 310.872) rotate(180)" fill="#f0f0f0"/><rect x="100.647" y="64.82" width="78.456" height="128.249" transform="translate(268.82 -65.882) rotate(90)" fill="#fafafa"/><polygon points="175.08 113.221 158.699 34.765 133.138 34.765 149.519 113.221 175.08 113.221" fill="#fff"/><path d="M201.274,162.315a.42.42,0,0,0,.421-.42V93.546a.421.421,0,0,0-.841,0V161.9A.42.42,0,0,0,201.274,162.315Z" transform="translate(0 -54.953)" fill="#f0f0f0"/><polygon points="144.028 113.221 127.647 34.765 117.682 34.765 134.063 113.221 144.028 113.221" fill="#fff"/><rect x="36.896" y="128.571" width="78.456" height="0.747" transform="translate(205.069 -2.131) rotate(90)" fill="#e6e6e6"/><polygon points="68.472 43.639 206.253 43.639 206.795 37.052 69.014 37.052 68.472 43.639" fill="#ebebeb" opacity="0.6"/><polygon points="68.472 47.354 206.253 47.354 206.795 40.768 69.014 40.768 68.472 47.354" fill="#ebebeb" opacity="0.6"/><polygon points="68.472 51.07 206.253 51.07 206.795 44.483 69.014 44.483 68.472 51.07" fill="#ebebeb" opacity="0.6"/><polygon points="68.472 54.785 206.253 54.785 206.795 48.199 69.014 48.199 68.472 54.785" fill="#ebebeb" opacity="0.6"/><polygon points="68.472 58.5 206.253 58.5 206.795 51.914 69.014 51.914 68.472 58.5" fill="#ebebeb" opacity="0.6"/><polygon points="68.472 62.216 206.253 62.216 206.795 55.63 69.014 55.63 68.472 62.216" fill="#ebebeb" opacity="0.6"/><rect x="96.013" y="220.179" width="4.763" height="53.092" transform="translate(196.79 438.497) rotate(180)" fill="#f5f5f5"/><rect x="96.627" y="220.142" width="1.346" height="53.092" transform="translate(194.599 438.424) rotate(180)" fill="#fafafa"/><rect x="98.536" y="220.142" width="0.527" height="53.092" transform="translate(197.599 438.424) rotate(180)" fill="#fafafa"/><path d="M80.763,272.064h35.264a0,0,0,0,1,0,0v0a4.443,4.443,0,0,1-4.443,4.443H85.206a4.443,4.443,0,0,1-4.443-4.443v0A0,0,0,0,1,80.763,272.064Z" transform="translate(196.79 493.618) rotate(180)" fill="#f0f0f0"/><path d="M89.835,253.138h0a1.373,1.373,0,0,0,1.37-1.37v-34.81a1.374,1.374,0,0,0-1.37-1.37h0a1.375,1.375,0,0,0-1.37,1.37v34.81A1.374,1.374,0,0,0,89.835,253.138Z" transform="translate(0 -54.953)" fill="#f0f0f0"/><polygon points="77.074 177.846 119.716 177.846 114.811 148.047 81.979 148.047 77.074 177.846" fill="#e0e0e0"/></g><g id="Shadow"><ellipse id="_Path_" data-name="&lt;Path&gt;" cx="250" cy="361.285" rx="193.889" ry="11.323" fill="#f5f5f5"/></g><g id="Window_No_Data" data-name="Window No Data"><rect x="103.782" y="202.372" width="1" height="18.489" transform="translate(-14.932 -46.915) rotate(-4.119)" fill="#407bff"/><rect x="105.382" y="230.351" width="1" height="6.955" transform="translate(-16.529 -46.74) rotate(-4.121)" fill="#407bff"/><path d="M337.711,315.161H123.553a9.647,9.647,0,0,1-9.441-8.807L103.59,160.225a8.107,8.107,0,0,1,8.172-8.807H325.92a9.647,9.647,0,0,1,9.441,8.807l10.523,146.129A8.108,8.108,0,0,1,337.711,315.161Z" transform="translate(0 -54.953)" fill="#407bff"/><path d="M338.532,315.161H124.374a9.647,9.647,0,0,1-9.441-8.807L104.411,160.225a8.107,8.107,0,0,1,8.172-8.807H326.741a9.647,9.647,0,0,1,9.441,8.807l10.523,146.129A8.108,8.108,0,0,1,338.532,315.161Z" transform="translate(0 -54.953)" fill="#407bff"/><path d="M338.532,315.161H124.374a9.647,9.647,0,0,1-9.441-8.807L104.411,160.225a8.107,8.107,0,0,1,8.172-8.807H326.741a9.647,9.647,0,0,1,9.441,8.807l10.523,146.129A8.108,8.108,0,0,1,338.532,315.161Z" transform="translate(0 -54.953)" fill="#fff" opacity="0.5"/><path d="M327.058,155.821H112.9q-.363,0-.717.029c-5.475.451-4.356,8.778,1.169,8.778H327.875c5.525,0,5.444-8.327-.1-8.778Q327.422,155.822,327.058,155.821Z" transform="translate(0 -54.953)" fill="#407bff"/><path d="M118.478,160.224a1.854,1.854,0,0,1-1.874,2.02,2.2,2.2,0,0,1-2.164-2.02,1.853,1.853,0,0,1,1.874-2.018A2.2,2.2,0,0,1,118.478,160.224Z" transform="translate(0 -54.953)" fill="#fafafa"/><path d="M125.346,160.224a1.854,1.854,0,0,1-1.874,2.02,2.2,2.2,0,0,1-2.164-2.02,1.852,1.852,0,0,1,1.873-2.018A2.2,2.2,0,0,1,125.346,160.224Z" transform="translate(0 -54.953)" fill="#fafafa"/><path d="M132.214,160.224a1.854,1.854,0,0,1-1.874,2.02,2.2,2.2,0,0,1-2.164-2.02,1.852,1.852,0,0,1,1.873-2.018A2.205,2.205,0,0,1,132.214,160.224Z" transform="translate(0 -54.953)" fill="#fafafa"/><path d="M332.854,300.577h-204.9a3.487,3.487,0,0,1-3.422-3.193l-8.654-120.173a2.932,2.932,0,0,1,2.963-3.193h204.9a3.488,3.488,0,0,1,3.423,3.193l8.653,120.173A2.931,2.931,0,0,1,332.854,300.577Z" transform="translate(0 -54.953)" fill="#fff"/><polygon points="246.53 199.846 243.194 153.526 233.087 147.443 205.283 147.443 209.057 199.846 246.53 199.846" fill="#fff"/><path d="M246.53,255.283H209.057a.486.486,0,0,1-.484-.45l-3.773-52.4a.483.483,0,0,1,.483-.519h27.8a.485.485,0,0,1,.25.069l10.107,6.084a.486.486,0,0,1,.234.38l3.335,46.319a.485.485,0,0,1-.483.52Zm-37.022-.969h36.5l-3.28-45.549-9.776-5.885H205.8Z" transform="translate(0 -54.953)" fill="#407bff"/><polygon points="243.194 153.526 233.087 147.443 236.798 155.502 243.194 153.526" fill="#ebebeb"/><path d="M236.8,210.939a.484.484,0,0,1-.44-.282l-3.711-8.059a.485.485,0,0,1,.69-.618l10.107,6.084a.484.484,0,0,1-.107.878l-6.4,1.976A.5.5,0,0,1,236.8,210.939Zm-2.613-7.317,2.876,6.245,4.956-1.531Z" transform="translate(0 -54.953)" fill="#407bff"/><path d="M220.969,226.005a1.943,1.943,0,0,1-1.964,2.117,2.311,2.311,0,0,1-2.27-2.117,1.943,1.943,0,0,1,1.965-2.116A2.311,2.311,0,0,1,220.969,226.005Z" transform="translate(0 -54.953)" fill="#407bff"/><path d="M234.705,226.005a1.944,1.944,0,0,1-1.965,2.117,2.311,2.311,0,0,1-2.269-2.117,1.943,1.943,0,0,1,1.964-2.116A2.311,2.311,0,0,1,234.705,226.005Z" transform="translate(0 -54.953)" fill="#407bff"/><path d="M238.58,239.735a.485.485,0,0,1-.483-.45c-.245-3.4-5.584-6.172-11.9-6.172-4.185,0-7.943,1.244-9.806,3.247a3.737,3.737,0,0,0-1.14,2.856.485.485,0,0,1-.967.069,4.73,4.73,0,0,1,1.4-3.585c2.041-2.194,6.071-3.557,10.516-3.557,6.929,0,12.581,3.107,12.867,7.073a.485.485,0,0,1-.449.518Z" transform="translate(0 -54.953)" fill="#407bff"/><path d="M213.167,221.717a.486.486,0,0,1-.355-.815l2.123-2.288a.485.485,0,0,1,.711.659l-2.123,2.288A.483.483,0,0,1,213.167,221.717Z" transform="translate(0 -54.953)" fill="#407bff"/><path d="M237.584,221.717a.483.483,0,0,1-.33-.131L234.8,219.3a.484.484,0,1,1,.661-.708l2.453,2.288a.485.485,0,0,1-.331.839Z" transform="translate(0 -54.953)" fill="#407bff"/><path d="M202.257,265.153h2.26l3.262,4.333-.313-4.333h2.282l.564,7.832H208.03l-3.242-4.3.309,4.3h-2.276Z" transform="translate(0 -54.953)" fill="#407bff"/><path d="M211.334,269.074a3.423,3.423,0,0,1,3.753-4.055,4.37,4.37,0,0,1,3.089,1.05,4.254,4.254,0,0,1,1.269,2.941,4.647,4.647,0,0,1-.3,2.252,2.968,2.968,0,0,1-1.237,1.368,4.208,4.208,0,0,1-2.142.489,5.221,5.221,0,0,1-2.224-.422,3.668,3.668,0,0,1-1.5-1.336A4.689,4.689,0,0,1,211.334,269.074Zm2.421.011a2.781,2.781,0,0,0,.564,1.7,1.6,1.6,0,0,0,1.236.519,1.384,1.384,0,0,0,1.171-.508,2.772,2.772,0,0,0,.3-1.822,2.578,2.578,0,0,0-.563-1.616,1.641,1.641,0,0,0-1.247-.51,1.362,1.362,0,0,0-1.138.518A2.513,2.513,0,0,0,213.755,269.085Z" transform="translate(0 -54.953)" fill="#407bff"/><path d="M224.152,265.153h3.6a4.473,4.473,0,0,1,1.739.288,3.108,3.108,0,0,1,1.141.828,3.739,3.739,0,0,1,.71,1.256,5.987,5.987,0,0,1,.3,1.517,5.131,5.131,0,0,1-.146,1.948,2.917,2.917,0,0,1-.71,1.159,2.36,2.36,0,0,1-1.045.623,5.457,5.457,0,0,1-1.427.213h-3.6Zm2.548,1.773.309,4.28h.593a2.411,2.411,0,0,0,1.067-.168,1.032,1.032,0,0,0,.46-.588,3.591,3.591,0,0,0,.083-1.36,2.792,2.792,0,0,0-.528-1.7,1.835,1.835,0,0,0-1.38-.46Z" transform="translate(0 -54.953)" fill="#407bff"/><path d="M237.448,271.692H234.7l-.289,1.293H231.94l2.38-7.832h2.64l3.507,7.832h-2.534ZM236.824,270l-1.068-2.816L235.1,270Z" transform="translate(0 -54.953)" fill="#407bff"/><path d="M239.369,265.153h7.357l.139,1.934H244.4l.425,5.9H242.4l-.424-5.9h-2.469Z" transform="translate(0 -54.953)" fill="#407bff"/><path d="M252.365,271.692h-2.747l-.289,1.293h-2.472l2.38-7.832h2.64l3.508,7.832H252.85ZM251.741,270l-1.067-2.816L250.021,270Z" transform="translate(0 -54.953)" fill="#407bff"/></g><g id="Character"><path d="M353.688,173.08c.894-.448,1.959-1.027,2.944-1.568,1-.551,2-1.126,2.984-1.724,1.959-1.206,3.933-2.4,5.808-3.722a77.046,77.046,0,0,0,10.512-8.653c.418-.382.773-.806,1.16-1.209l.57-.613.286-.305.143-.154c.037-.04.029-.031.01-.008l-.031.049c-.143.266-.024.186.031-.072a5.459,5.459,0,0,0,.141-1.091,30.014,30.014,0,0,0-.729-6.318c-.89-4.486-2.238-9.1-3.571-13.618l3.886-1.7a81.975,81.975,0,0,1,6.112,13.6,31.873,31.873,0,0,1,1.719,7.893,12.219,12.219,0,0,1-.083,2.511,7.607,7.607,0,0,1-1.223,3.283l-.166.231-.129.168-.154.188-.308.374-.618.75c-.417.493-.812,1.015-1.255,1.477A71.15,71.15,0,0,1,370.347,173c-2.037,1.489-4.12,2.9-6.283,4.19q-1.615.978-3.277,1.885c-1.123.625-2.191,1.168-3.467,1.766Z" transform="translate(0 -54.953)" fill="#ffb573"/><path d="M344.794,408.178a10.108,10.108,0,0,0,2.211-.3.2.2,0,0,0,.064-.358c-.287-.189-2.831-1.831-3.805-1.39a.675.675,0,0,0-.395.558,1.128,1.128,0,0,0,.329,1.054A2.4,2.4,0,0,0,344.794,408.178Zm1.65-.583c-1.458.291-2.555.241-2.979-.146a.746.746,0,0,1-.2-.706.281.281,0,0,1,.165-.251C343.94,406.26,345.407,406.968,346.444,407.6Z" transform="translate(0 -54.953)" fill="#407bff"/><path d="M346.96,407.884a.2.2,0,0,0,.2-.2c0-.1-.011-2.514-.922-3.32a1.033,1.033,0,0,0-.84-.265.691.691,0,0,0-.667.553c-.189.944,1.334,2.752,2.133,3.2A.2.2,0,0,0,346.96,407.884Zm-1.425-3.4a.643.643,0,0,1,.438.174,4.532,4.532,0,0,1,.776,2.638c-.8-.636-1.746-1.994-1.631-2.569.019-.094.073-.206.326-.237A.707.707,0,0,1,345.535,404.488Z" transform="translate(0 -54.953)" fill="#407bff"/><path d="M346.223,148.067c-.974,4.97-3.028,15.037.45,18.354,0,0-1.359,5.042-10.594,5.042-10.156,0-4.854-5.042-4.854-5.042,5.543-1.323,5.4-5.436,4.434-9.3Z" transform="translate(0 -54.953)" fill="#ffb573"/><path d="M329.284,168.424c-1.594.216-.238-3.913.41-4.341,1.5-.989,20.851-2.39,20.725-.041-.08,1.011-.555,2.984-1.4,3.654S343.2,166.342,329.284,168.424Z" transform="translate(0 -54.953)" fill="#263238"/><path d="M332.437,167.034c-1.266.428-1.146-3.733-.714-4.234,1-1.158,16.663-5.183,17.129-2.906.179.984.265,2.948-.272,3.71S343.439,163.1,332.437,167.034Z" transform="translate(0 -54.953)" fill="#263238"/><path d="M326.61,139.108a.4.4,0,0,1-.331-.145,3.158,3.158,0,0,0-2.589-1.228.4.4,0,1,1-.086-.789,3.937,3.937,0,0,1,3.29,1.514.4.4,0,0,1-.284.648Z" transform="translate(0 -54.953)" fill="#263238"/><path d="M324.672,144a18.054,18.054,0,0,1-1.974,4.527,2.906,2.906,0,0,0,2.441.214Z" transform="translate(0 -54.953)" fill="#ff5652"/><path d="M325.16,142.787c.066.672-.236,1.252-.676,1.295s-.849-.467-.915-1.139.236-1.253.676-1.3S325.094,142.114,325.16,142.787Z" transform="translate(0 -54.953)" fill="#263238"/><path d="M324.443,141.665l-1.661-.306S323.735,142.539,324.443,141.665Z" transform="translate(0 -54.953)" fill="#263238"/><polygon points="356.7 352.733 348.324 352.733 348.981 333.335 357.357 333.335 356.7 352.733" fill="#ffb573"/><path d="M347.661,406.715h9.41a.664.664,0,0,1,.669.573l1.072,7.445a1.347,1.347,0,0,1-1.343,1.49c-3.281-.057-4.862-.249-9-.249-2.546,0-6.266.264-9.782.264-3.439,0-3.7-3.477-2.239-3.791,6.564-1.412,7.6-3.359,9.813-5.217A2.19,2.19,0,0,1,347.661,406.715Z" transform="translate(0 -54.953)" fill="#263238"/><g opacity="0.2"><polygon points="357.359 333.34 348.979 333.34 348.645 343.339 357.025 343.339 357.359 333.34"/></g><path d="M323.373,178.044a164.355,164.355,0,0,1-15.049-6.754,90.788,90.788,0,0,1-14.405-8.774,33.1,33.1,0,0,1-3.421-3.07c-.279-.3-.558-.578-.832-.922a13.227,13.227,0,0,1-.879-1.131,7.967,7.967,0,0,1-1.338-3.609,8.125,8.125,0,0,1,.491-3.62,10.95,10.95,0,0,1,1.407-2.608,18.655,18.655,0,0,1,3.389-3.52,41.893,41.893,0,0,1,7.3-4.666c1.24-.659,2.5-1.252,3.784-1.8s2.541-1.071,3.906-1.54l1.775,3.853c-4.361,2.749-8.88,5.77-12.2,9.159a13.708,13.708,0,0,0-1.958,2.49c-.475.787-.469,1.377-.388,1.331.041,0,.024-.018.14.1l.4.428c.149.178.361.362.549.545a25.636,25.636,0,0,0,2.7,2.169,64.3,64.3,0,0,0,6.433,3.97c2.255,1.252,4.573,2.45,6.935,3.586,4.713,2.257,9.6,4.429,14.392,6.413Z" transform="translate(0 -54.953)" fill="#ffb573"/><path d="M311.969,137.154l1.385-3-6.3-2.187s-1.961,5.9.377,8.627h0A6.042,6.042,0,0,0,311.969,137.154Z" transform="translate(0 -54.953)" fill="#ffb573"/><polygon points="313.354 72.703 308.321 71.253 307.058 77.011 313.354 79.197 313.354 72.703" fill="#ffb573"/><path d="M378.35,134.441l.733-7.02-6.488,1.525s-.1,6.58,3.337,7.629Z" transform="translate(0 -54.953)" fill="#ffb573"/><polygon points="375.958 67.554 371.731 69.528 372.595 73.993 379.083 72.468 375.958 67.554" fill="#ffb573"/><path d="M347.541,138.255c.305,8.307.611,11.817-3.143,16.466-5.646,6.992-15.917,5.55-18.7-2.5-2.5-7.245-2.582-19.613,5.178-23.694A11.339,11.339,0,0,1,347.541,138.255Z" transform="translate(0 -54.953)" fill="#ffb573"/><path d="M343.921,154.705c8.156-3.524,13.52-10.955,11.255-22.574-2.166-11.116-9.671-12.214-12.771-9.908s-10.827-1.131-15.464,2.771c-8.034,6.761-.438,14.05,3.518,18.369C332.823,148.221,335.919,158.163,343.921,154.705Z" transform="translate(0 -54.953)" fill="#263238"/><path d="M340.535,130.136a8.287,8.287,0,1,0,1.824-11.916A8.531,8.531,0,0,0,340.535,130.136Z" transform="translate(0 -54.953)" fill="#407bff"/><path d="M342.652,123c-1.177-6.7,5.161-11.863,13.636-9.367s3.992,10.009,2.254,16.009,2.823,11.714,4.73,7.145-1.3-5.98-1.3-5.98,9,2.333.639,12.478-15.928-1.058-13.882-7.668C350.385,130.276,343.765,129.333,342.652,123Z" transform="translate(0 -54.953)" fill="#263238"/><path d="M334.182,125.533c-3.869-2.019-10.421-3.651-14.15,2.623-1.763,2.967-1.08,6.989-1.08,6.989l11.389.758Z" transform="translate(0 -54.953)" fill="#263238"/><path d="M317.612,133.177H317.6a.25.25,0,0,1-.234-.265c.011-.17.286-4.193,2.714-6.717,5.869-6.1,12.75-1.04,14.719.656a.25.25,0,0,1-.326.379c-1.885-1.623-8.467-6.47-14.032-.688-2.3,2.389-2.573,6.361-2.576,6.4A.25.25,0,0,1,317.612,133.177Z" transform="translate(0 -54.953)" fill="#263238"/><path d="M331.852,143.033a6.914,6.914,0,0,1-1.655,4.277c-1.382,1.616-2.966.821-3.329-.971-.327-1.613,0-4.4,1.744-5.374C330.333,140,331.867,141.183,331.852,143.033Z" transform="translate(0 -54.953)" fill="#ffb573"/><path d="M330.053,219.122s.534,58.144,5.578,90.545c4.074,26.17,11.613,86.688,11.613,86.688h11.423s1.116-58.424-.952-84.308c-5.233-65.5,8.271-77.742-2.626-92.925Z" transform="translate(0 -54.953)" fill="#263238"/><path d="M330.053,219.122s.534,58.144,5.578,90.545c4.074,26.17,11.613,86.688,11.613,86.688h11.423s1.116-58.424-.952-84.308c-5.233-65.5,8.271-77.742-2.626-92.925Z" transform="translate(0 -54.953)" fill="#fff" opacity="0.1"/><path d="M336.057,245.5c4.01,17.55.81,45.19-1.38,57.36-2.32-18.48-3.49-42.43-4.07-59.98C332.677,239.52,334.637,239.3,336.057,245.5Z" transform="translate(0 -54.953)" opacity="0.3"/><polygon points="345.681 341.629 360.23 341.629 360.994 336.525 345.598 336.004 345.681 341.629" fill="#407bff"/><path d="M349.833,170.042c1.369-2.721,8.725-4.434,12.746-4.427l3.01,13.365s-8.011,11.89-11.343,10.629C350.31,188.122,346.9,175.872,349.833,170.042Z" transform="translate(0 -54.953)" fill="#407bff"/><path d="M349.833,170.042c1.369-2.721,8.725-4.434,12.746-4.427l3.01,13.365s-8.011,11.89-11.343,10.629C350.31,188.122,346.9,175.872,349.833,170.042Z" transform="translate(0 -54.953)" opacity="0.4"/><path d="M341.353,393.313a.2.2,0,0,0-.2-.3c-.42.063-4.122.651-4.622,1.708a.639.639,0,0,0,.038.625,1.1,1.1,0,0,0,.858.57c1.213.125,2.965-1.558,3.9-2.572A.234.234,0,0,0,341.353,393.313Zm-4.441,1.537c.343-.561,2.256-1.078,3.718-1.347-1.32,1.342-2.481,2.088-3.161,2.018a.713.713,0,0,1-.559-.379.25.25,0,0,1-.02-.252C336.9,394.877,336.9,394.863,336.912,394.85Z" transform="translate(0 -54.953)" fill="#407bff"/><path d="M341.353,393.313a.2.2,0,0,0,.018-.04.2.2,0,0,0-.037-.193c-.063-.073-1.546-1.782-2.913-1.871a1.436,1.436,0,0,0-1.09.369c-.411.368-.376.688-.273.892.433.858,3.093,1.156,4.166.934A.2.2,0,0,0,341.353,393.313Zm-3.915-1.259a.808.808,0,0,1,.158-.18,1.034,1.034,0,0,1,.8-.269,4.587,4.587,0,0,1,2.383,1.461c-1.185.1-3.106-.26-3.366-.775A.22.22,0,0,1,337.438,392.054Z" transform="translate(0 -54.953)" fill="#407bff"/><polygon points="350.083 334.813 342.422 338.215 339.008 331.111 334.547 321.806 334.024 320.725 341.676 317.316 342.268 318.534 346.593 327.544 350.083 334.813" fill="#ffb573"/><polygon points="346.593 327.544 339.008 331.111 334.547 321.806 342.268 318.534 346.593 327.544" opacity="0.2"/><path d="M321.069,219.122S296.6,279.956,303.229,308.6c6,25.89,32.5,74.921,32.5,74.921l10.25-5.145s-16.388-59.188-18.166-72.047c-3.459-25.018,18.776-60.333,18.776-87.211Z" transform="translate(0 -54.953)" fill="#263238"/><path d="M321.069,219.122S296.6,279.956,303.229,308.6c6,25.89,32.5,74.921,32.5,74.921l10.25-5.145s-16.388-59.188-18.166-72.047c-3.459-25.018,18.776-60.333,18.776-87.211Z" transform="translate(0 -54.953)" fill="#fff" opacity="0.1"/><path d="M341.055,392.1l7.609-5.538a.663.663,0,0,1,.877.07l5.248,5.388a1.347,1.347,0,0,1-.209,1.995c-2.686,1.885-4.078,2.66-7.424,5.1-2.058,1.5-6.16,4.811-9,6.88-2.78,2.023-5.04-.632-4.041-1.748,4.476-5,5.419-8.1,6.114-10.9A2.187,2.187,0,0,1,341.055,392.1Z" transform="translate(0 -54.953)" fill="#263238"/><polygon points="335.074 330.741 348.304 324.69 346.606 319.298 332.438 325.761 335.074 330.741" fill="#407bff"/><path d="M327.564,169.36c-1.1-2.841-10.657-5.957-15.453-7.045L310,178.083s7.831,11.256,11.269,10.324C325.335,187.308,329.916,175.447,327.564,169.36Z" transform="translate(0 -54.953)" fill="#407bff"/><path d="M327.564,169.36c-1.1-2.841-10.657-5.957-15.453-7.045L310,178.083s7.831,11.256,11.269,10.324C325.335,187.308,329.916,175.447,327.564,169.36Z" transform="translate(0 -54.953)" opacity="0.4"/><path d="M317.066,168.567s-3.99,1.405,4,50.555h34.02c-.571-13.846-.587-22.384,6.03-50.8a100.311,100.311,0,0,0-14.446-1.9,108.243,108.243,0,0,0-15.448,0C324.591,167.027,317.066,168.567,317.066,168.567Z" transform="translate(0 -54.953)" fill="#407bff"/><path d="M317.066,168.567s-3.99,1.405,4,50.555h34.02c-.571-13.846-.587-22.384,6.03-50.8a100.311,100.311,0,0,0-14.446-1.9,108.243,108.243,0,0,0-15.448,0C324.591,167.027,317.066,168.567,317.066,168.567Z" transform="translate(0 -54.953)" opacity="0.4"/><path d="M355.6,217.125l1.534,3.046c.119.236-.161.477-.554.477H320.9c-.306,0-.56-.151-.58-.343l-.307-3.045c-.021-.212.245-.39.58-.39h34.45A.618.618,0,0,1,355.6,217.125Z" transform="translate(0 -54.953)" fill="#407bff"/><path d="M355.6,217.125l1.534,3.046c.119.236-.161.477-.554.477H320.9c-.306,0-.56-.151-.58-.343l-.307-3.045c-.021-.212.245-.39.58-.39h34.45A.618.618,0,0,1,355.6,217.125Z" transform="translate(0 -54.953)" fill="#fff" opacity="0.3"/><path d="M350.971,220.977h.923c.184,0,.324-.094.311-.21l-.433-3.956c-.012-.116-.173-.211-.357-.211h-.922c-.184,0-.324.095-.312.211l.433,3.956C350.627,220.883,350.788,220.977,350.971,220.977Z" transform="translate(0 -54.953)" fill="#263238"/><path d="M328.608,220.977h.922c.184,0,.324-.094.311-.21l-.433-3.956c-.012-.116-.173-.211-.357-.211h-.922c-.184,0-.324.095-.311.211l.432,3.956C328.263,220.883,328.424,220.977,328.608,220.977Z" transform="translate(0 -54.953)" fill="#263238"/></g></svg>