<svg xmlns="http://www.w3.org/2000/svg" viewBox="0 0 500 372.609"><g id="Background_Complete" data-name="Background Complete"><rect y="327.446" width="500" height="0.25" fill="#ebebeb"/><rect x="416.779" y="343.542" width="33.122" height="0.25" fill="#ebebeb"/><rect x="322.527" y="346.255" width="8.693" height="0.25" fill="#ebebeb"/><rect x="396.586" y="334.256" width="19.192" height="0.25" fill="#ebebeb"/><rect x="52.459" y="335.936" width="43.193" height="0.25" fill="#ebebeb"/><rect x="104.556" y="335.936" width="6.333" height="0.25" fill="#ebebeb"/><rect x="131.471" y="340.158" width="93.676" height="0.25" fill="#ebebeb"/><path d="M237.014,337.8H43.915a5.715,5.715,0,0,1-5.708-5.708V60.66a5.714,5.714,0,0,1,5.708-5.707h193.1a5.714,5.714,0,0,1,5.707,5.707V332.092A5.715,5.715,0,0,1,237.014,337.8ZM43.915,55.2a5.463,5.463,0,0,0-5.458,5.457V332.092a5.464,5.464,0,0,0,5.458,5.458h193.1a5.463,5.463,0,0,0,5.457-5.458V60.66a5.463,5.463,0,0,0-5.457-5.457Z" transform="translate(0 -54.953)" fill="#ebebeb"/><path d="M453.31,337.8h-193.1a5.714,5.714,0,0,1-5.707-5.708V60.66a5.713,5.713,0,0,1,5.707-5.707h193.1a5.714,5.714,0,0,1,5.709,5.707V332.092A5.715,5.715,0,0,1,453.31,337.8ZM260.212,55.2a5.463,5.463,0,0,0-5.457,5.457V332.092a5.463,5.463,0,0,0,5.457,5.458h193.1a5.464,5.464,0,0,0,5.459-5.458V60.66A5.464,5.464,0,0,0,453.31,55.2Z" transform="translate(0 -54.953)" fill="#ebebeb"/><rect x="336.711" y="182.562" width="22.297" height="9.486" fill="#fafafa"/><rect x="309.729" y="182.562" width="22.298" height="9.486" fill="#fafafa"/><rect x="282.748" y="182.562" width="22.297" height="9.486" fill="#fafafa"/><rect x="350.202" y="195.769" width="22.298" height="9.486" fill="#fafafa"/><rect x="323.22" y="195.769" width="22.297" height="9.486" fill="#fafafa"/><rect x="296.239" y="195.769" width="22.297" height="9.486" fill="#fafafa"/><rect x="269.257" y="195.769" width="22.298" height="9.486" fill="#fafafa"/><rect x="393.694" y="208.975" width="22.297" height="9.486" fill="#fafafa"/><rect x="366.713" y="208.975" width="22.298" height="9.486" fill="#fafafa"/><rect x="309.729" y="208.975" width="22.298" height="9.486" fill="#fafafa"/><rect x="282.748" y="208.975" width="22.297" height="9.486" fill="#fafafa"/><rect x="255.767" y="208.975" width="22.297" height="9.486" fill="#fafafa"/><rect x="380.203" y="222.182" width="22.297" height="9.486" fill="#fafafa"/><rect x="323.22" y="222.182" width="22.297" height="9.486" fill="#fafafa"/><rect x="296.239" y="222.182" width="22.297" height="9.486" fill="#fafafa"/><rect x="269.257" y="222.182" width="22.298" height="9.486" fill="#fafafa"/><rect x="164.012" y="48.01" width="22.298" height="9.486" fill="#fafafa"/><rect x="137.031" y="48.01" width="22.298" height="9.486" fill="#fafafa"/><rect x="177.503" y="61.216" width="22.297" height="9.486" fill="#fafafa"/><rect x="150.522" y="61.216" width="22.297" height="9.486" fill="#fafafa"/><rect x="96.559" y="61.216" width="22.297" height="9.486" fill="#fafafa"/><rect x="69.577" y="61.216" width="22.297" height="9.486" fill="#fafafa"/><rect x="137.031" y="74.423" width="22.298" height="9.486" fill="#fafafa"/><rect x="382.645" y="125.311" width="22.298" height="9.486" fill="#fafafa"/><rect x="335.662" y="125.311" width="22.298" height="9.486" fill="#fafafa"/><rect x="396.136" y="138.517" width="22.297" height="9.486" fill="#fafafa"/><rect x="369.154" y="138.517" width="22.297" height="9.486" fill="#fafafa"/><rect x="138.935" y="111.983" width="22.298" height="9.486" fill="#fafafa"/><rect x="81.946" y="111.983" width="22.298" height="9.486" fill="#fafafa"/><rect x="152.426" y="125.19" width="22.297" height="9.486" fill="#fafafa"/><rect x="115.438" y="125.19" width="22.297" height="9.486" fill="#fafafa"/><rect x="382.645" y="151.724" width="22.298" height="9.486" fill="#fafafa"/><rect x="335.662" y="151.724" width="22.298" height="9.486" fill="#fafafa"/><rect x="83.068" y="74.423" width="22.297" height="9.486" fill="#fafafa"/><rect x="398.988" y="48.366" width="22.297" height="9.486" fill="#fafafa"/><rect x="372.006" y="48.366" width="22.297" height="9.486" fill="#fafafa"/><rect x="385.497" y="61.572" width="22.297" height="9.486" fill="#fafafa"/><rect x="278.119" y="48.575" width="22.298" height="9.486" fill="#fafafa"/><rect x="251.138" y="48.575" width="22.297" height="9.486" fill="#fafafa"/><rect x="291.61" y="61.782" width="22.298" height="9.486" fill="#fafafa"/><rect x="264.629" y="61.782" width="22.297" height="9.486" fill="#fafafa"/><rect x="237.647" y="61.782" width="22.297" height="9.486" fill="#fafafa"/><rect x="305.101" y="74.989" width="22.297" height="9.486" fill="#fafafa"/><rect x="278.119" y="74.989" width="22.298" height="9.486" fill="#fafafa"/><rect x="251.138" y="74.989" width="22.297" height="9.486" fill="#fafafa"/><rect x="291.61" y="88.195" width="22.298" height="9.486" fill="#fafafa"/><rect x="264.629" y="88.195" width="22.297" height="9.486" fill="#fafafa"/><rect x="110.256" y="178.975" width="22.297" height="9.486" fill="#fafafa"/><rect x="83.274" y="178.975" width="22.297" height="9.486" fill="#fafafa"/><rect x="187.716" y="180.181" width="22.298" height="9.486" fill="#fafafa"/><rect x="123.746" y="192.181" width="22.297" height="9.486" fill="#fafafa"/><rect x="96.765" y="192.181" width="22.297" height="9.486" fill="#fafafa"/><rect x="201.207" y="193.387" width="22.297" height="9.486" fill="#fafafa"/><rect x="174.225" y="193.387" width="22.297" height="9.486" fill="#fafafa"/><rect x="245.823" y="150.69" width="22.298" height="9.486" fill="#fafafa"/><rect x="105.93" y="144.403" width="22.298" height="9.486" fill="#fafafa"/><rect x="215.413" y="103.854" width="22.298" height="9.486" fill="#fafafa"/><rect x="232.332" y="137.483" width="22.297" height="9.486" fill="#fafafa"/><rect x="259.314" y="137.483" width="22.297" height="9.486" fill="#fafafa"/><rect x="360.604" y="317.78" width="22.298" height="9.486" fill="#fafafa"/><rect x="374.095" y="304.574" width="22.297" height="9.486" fill="#fafafa"/><rect x="110.256" y="205.388" width="22.297" height="9.486" fill="#fafafa"/><rect x="83.274" y="205.388" width="22.297" height="9.486" fill="#fafafa"/><rect x="123.746" y="218.594" width="22.297" height="9.486" fill="#fafafa"/><rect x="96.765" y="218.594" width="22.297" height="9.486" fill="#fafafa"/><rect x="152.598" y="255.129" width="22.297" height="9.486" fill="#fafafa"/><rect x="125.616" y="255.129" width="22.297" height="9.486" fill="#fafafa"/><rect x="98.634" y="255.129" width="22.297" height="9.486" fill="#fafafa"/><rect x="71.653" y="255.129" width="22.297" height="9.486" fill="#fafafa"/><rect x="166.088" y="268.335" width="22.298" height="9.486" fill="#fafafa"/><rect x="139.107" y="268.335" width="22.297" height="9.486" fill="#fafafa"/><rect x="85.144" y="268.335" width="22.297" height="9.486" fill="#fafafa"/><rect x="179.579" y="281.542" width="22.297" height="9.486" fill="#fafafa"/><rect x="152.598" y="281.542" width="22.297" height="9.486" fill="#fafafa"/><rect x="125.616" y="281.542" width="22.297" height="9.486" fill="#fafafa"/><rect x="166.088" y="294.748" width="22.298" height="9.486" fill="#fafafa"/><rect x="139.107" y="294.748" width="22.297" height="9.486" fill="#fafafa"/><rect x="112.125" y="294.748" width="22.297" height="9.486" fill="#fafafa"/><rect x="335.135" y="254.519" width="22.297" height="9.486" fill="#fafafa"/><rect x="278.151" y="254.519" width="22.297" height="9.486" fill="#fafafa"/><rect x="251.17" y="254.519" width="22.297" height="9.486" fill="#fafafa"/><rect x="348.625" y="267.725" width="22.298" height="9.486" fill="#fafafa"/><rect x="291.642" y="267.725" width="22.297" height="9.486" fill="#fafafa"/><rect x="264.66" y="267.725" width="22.298" height="9.486" fill="#fafafa"/><rect x="237.679" y="267.725" width="22.297" height="9.486" fill="#fafafa"/><rect x="362.116" y="280.932" width="22.297" height="9.486" fill="#fafafa"/><rect x="335.135" y="280.932" width="22.297" height="9.486" fill="#fafafa"/><rect x="278.151" y="280.932" width="22.297" height="9.486" fill="#fafafa"/><rect x="251.17" y="280.932" width="22.297" height="9.486" fill="#fafafa"/><rect x="318.623" y="294.139" width="22.298" height="9.486" fill="#fafafa"/><rect x="291.642" y="294.139" width="22.297" height="9.486" fill="#fafafa"/><rect x="264.66" y="294.139" width="22.298" height="9.486" fill="#fafafa"/><rect x="237.679" y="294.139" width="22.297" height="9.486" fill="#fafafa"/><rect x="309.031" y="155.113" width="96.317" height="110.175" transform="translate(714.378 365.448) rotate(180)" fill="#e0e0e0"/><rect x="309.21" y="155.113" width="92.613" height="110.175" transform="translate(711.032 365.448) rotate(180)" fill="#e0e0e0"/><rect x="306.029" y="155.113" width="96.317" height="110.175" transform="translate(708.374 365.448) rotate(180)" fill="#f0f0f0"/><rect x="310.399" y="158.627" width="87.74" height="101.598" transform="translate(708.539 363.9) rotate(180)" fill="#fff"/><rect x="310.399" y="158.627" width="2.74" height="101.598" transform="translate(623.539 363.9) rotate(180)" fill="#e0e0e0"/><rect x="354.245" y="190.289" width="2.74" height="85.536" transform="translate(122.558 533.719) rotate(-90)" fill="#e0e0e0"/><rect x="310.399" y="227.087" width="89.21" height="4.6" transform="translate(710.008 403.822) rotate(180)" fill="#f0f0f0"/><rect x="105.903" y="155.113" width="96.317" height="110.175" transform="translate(308.122 365.448) rotate(180)" fill="#e0e0e0"/><rect x="106.082" y="155.113" width="92.613" height="110.175" transform="translate(304.776 365.448) rotate(180)" fill="#e0e0e0"/><rect x="102.901" y="155.113" width="96.317" height="110.175" transform="translate(302.119 365.448) rotate(180)" fill="#f0f0f0"/><rect x="107.271" y="158.627" width="87.74" height="101.598" transform="translate(302.283 363.9) rotate(180)" fill="#fff"/><rect x="107.271" y="158.627" width="2.74" height="101.598" transform="translate(217.283 363.9) rotate(180)" fill="#e0e0e0"/><rect x="151.117" y="190.289" width="2.74" height="85.536" transform="translate(-80.57 330.591) rotate(-90)" fill="#e0e0e0"/><rect x="107.271" y="227.087" width="89.21" height="4.6" transform="translate(303.753 403.822) rotate(180)" fill="#f0f0f0"/></g><g id="Shadow"><ellipse id="_Path_" data-name="&lt;Path&gt;" cx="250" cy="361.285" rx="193.889" ry="11.323" fill="#f5f5f5"/></g><g id="Plant"><path d="M89.382,390.415s-1.388-10.175-7.894-11.288-4.545-6.033-6.24-7.937-6.122,3.714-2.33,9.157.693,3.732,2.33,8.792S89.977,398.848,89.382,390.415Z" transform="translate(0 -54.953)" fill="#263238"/><path d="M89.382,390.415s-1.388-10.175-7.894-11.288-4.545-6.033-6.24-7.937-6.122,3.714-2.33,9.157.693,3.732,2.33,8.792S89.977,398.848,89.382,390.415Z" transform="translate(0 -54.953)" fill="#fff" opacity="0.2" style="isolation:isolate"/><path d="M89.111,397.021s-4.987-10.365-2.369-27.28,12.451-23.479,3.9-42.092-18.314-31.883-13.429-45.09" transform="translate(0 -54.953)" fill="none" stroke="#263238" stroke-linecap="round" stroke-linejoin="round" stroke-width="0.902"/><path d="M85.355,394.987s-4.2-6.338,1.865-9.6,7.286-.635,11.042-2.978,6.6-8.021,7.242-4.388-3.7,5.705-2.164,7.366S93.131,397.844,85.355,394.987Z" transform="translate(0 -54.953)" fill="#263238"/><path d="M75.435,287.852s-4.1-12.454,5.22-12.715S79.7,286.524,75.435,287.852Z" transform="translate(0 -54.953)" fill="#263238"/><path d="M83.529,297.426s2.776-11.324,9.391-8.936S90.121,297.635,83.529,297.426Z" transform="translate(0 -54.953)" fill="#263238"/><path d="M72.307,298.407s1-9.037-6.021-9.216S62.391,296.948,72.307,298.407Z" transform="translate(0 -54.953)" fill="#263238"/><path d="M76.977,316.842s-9.42-8.4-12.807-2.149S71.275,322.245,76.977,316.842Z" transform="translate(0 -54.953)" fill="#263238"/><path d="M93.643,315.352s1.771-13.947,9.38-9.572S100.271,316.746,93.643,315.352Z" transform="translate(0 -54.953)" fill="#263238"/><path d="M100.338,335.32s-5.617-14.092,4.82-12.5S107.705,331.9,100.338,335.32Z" transform="translate(0 -54.953)" fill="#263238"/><path d="M84.323,340.348s-8.816-10.385-15.553-7.092S67.539,346.874,84.323,340.348Z" transform="translate(0 -54.953)" fill="#263238"/><path d="M92.322,363.357s7.51-16.676,14.188-11.056S102.25,366.324,92.322,363.357Z" transform="translate(0 -54.953)" fill="#263238"/><path d="M81.409,362.381s1.984-12.936-5.451-11.9S70.476,359.439,81.409,362.381Z" transform="translate(0 -54.953)" fill="#263238"/><g opacity="0.2" style="isolation:isolate"><path d="M75.435,287.852s-4.1-12.454,5.22-12.715S79.7,286.524,75.435,287.852Z" transform="translate(0 -54.953)" fill="#fff"/><path d="M83.529,297.426s2.776-11.324,9.391-8.936S90.121,297.635,83.529,297.426Z" transform="translate(0 -54.953)" fill="#fff"/><path d="M72.307,298.407s1-9.037-6.021-9.216S62.391,296.948,72.307,298.407Z" transform="translate(0 -54.953)" fill="#fff"/><path d="M76.977,316.842s-9.42-8.4-12.807-2.149S71.275,322.245,76.977,316.842Z" transform="translate(0 -54.953)" fill="#fff"/><path d="M93.643,315.352s1.771-13.947,9.38-9.572S100.271,316.746,93.643,315.352Z" transform="translate(0 -54.953)" fill="#fff"/><path d="M100.338,335.32s-5.617-14.092,4.82-12.5S107.705,331.9,100.338,335.32Z" transform="translate(0 -54.953)" fill="#fff"/><path d="M84.323,340.348s-8.816-10.385-15.553-7.092S67.539,346.874,84.323,340.348Z" transform="translate(0 -54.953)" fill="#fff"/><path d="M92.322,363.357s7.51-16.676,14.188-11.056S102.25,366.324,92.322,363.357Z" transform="translate(0 -54.953)" fill="#fff"/><path d="M81.409,362.381s1.984-12.936-5.451-11.9S70.476,359.439,81.409,362.381Z" transform="translate(0 -54.953)" fill="#fff"/></g><path d="M69.972,295.444s4.008,5.957,9.494,9.028c0,0,3.627-7,6.457-8.7" transform="translate(0 -54.953)" fill="none" stroke="#263238" stroke-linecap="round" stroke-linejoin="round" stroke-width="0.902"/><path d="M69.744,316.007s10.195-.329,18.264,5.771c0,0,4.48-7.594,10.358-11.055" transform="translate(0 -54.953)" fill="none" stroke="#263238" stroke-linecap="round" stroke-linejoin="round" stroke-width="0.902"/><path d="M103.411,328.647s-4.375,11.517-9.963,16c0,0-11.58-6.713-20.084-6.881" transform="translate(0 -54.953)" fill="none" stroke="#263238" stroke-linecap="round" stroke-linejoin="round" stroke-width="0.902"/><path d="M76.818,354.681s5.722,11.17,9.991,13.61a24.948,24.948,0,0,1,12.619-8.217" transform="translate(0 -54.953)" fill="none" stroke="#263238" stroke-linecap="round" stroke-linejoin="round" stroke-width="0.902"/><path d="M86,393.475s-3.606-5.74-7.679-6.557-5.828-5.509-7.331-2.687S73.633,396.407,86,393.475Z" transform="translate(0 -54.953)" fill="#263238"/><polygon points="71.309 361.054 101.386 361.054 103.399 336.765 69.296 336.765 71.309 361.054" fill="#407bff"/><polygon points="68.594 341.366 104.101 341.366 104.556 336.22 68.14 336.22 68.594 341.366" fill="#407bff"/><polygon points="68.594 341.366 104.101 341.366 104.556 336.22 68.14 336.22 68.594 341.366" fill="#fff" opacity="0.3"/></g><g id="Text"><path d="M128.348,248.019a1.623,1.623,0,0,1,.376-.293l18.051-35.671-8.3,1.608L131.2,227.91a.621.621,0,0,1,.126.049.606.606,0,0,1,.161.831c-.167.251-.305.519-.45.782.127.083.246.178.381.25a.589.589,0,0,1,.246.618.6.6,0,0,1-.467.466c-.082.016-.164.035-.245.057l-.046.013-.056.019a2.828,2.828,0,0,0-.393.187l-.087.052-.009.006c-.05.037-.1.073-.148.111a3.746,3.746,0,0,0-.3.273c-.055.055-.108.113-.161.171l0,.006-.07.083c-.095.115-.186.234-.274.355-.2.271-.387.55-.576.828a.578.578,0,0,1-.382.249l-10.653,20.868,1.043,5.378,4.733-.917a3.206,3.206,0,0,1,.739-1.2,3.707,3.707,0,0,1,.518-.386c0-.038,0-.074,0-.112a15.62,15.62,0,0,1,2.3-6.815.63.63,0,0,1-.016-.671,1.464,1.464,0,0,0,.176-.946A.616.616,0,0,1,128.348,248.019Z" transform="translate(0 -54.953)" fill="#407bff"/><path d="M159.461,244.832a1.373,1.373,0,0,1-.116.432,3.037,3.037,0,0,1-1.377,1.321c-.12.172-.244.341-.362.515a.567.567,0,0,1-.257.2c-.028.094-.065.186-.092.282a.6.6,0,1,1-1.129-.4,7.378,7.378,0,0,1,.378-1.036l-.569.11a.608.608,0,0,1-.7-.474.5.5,0,0,1,0-.134l-.341.066-2.263-11.679-7.223,1.4,2.264,11.679L129.8,250.582c-.121.063-.228.146-.346.215l.032.087a.615.615,0,0,1-.271.8.6.6,0,0,1-.747-.194,6.5,6.5,0,0,0-.917.945.59.59,0,0,1,.541,1.017c-.164.127-.321.262-.476.4a.628.628,0,0,1,0,.665c.006-.007,0,0,0,0v0l-.018.03c-.01.026-.018.052-.026.078l0,.025c0,.037-.007.073-.008.11-.006.146.008.293-.009.439a1.144,1.144,0,0,1-.333.711,1.524,1.524,0,0,1-.769.355c-.021,0-.042,0-.063,0a6.118,6.118,0,0,0,.127.883,4.411,4.411,0,0,1,.318.857l21.894-4.244,2.561,13.215,7.453-1.445-2.562-13.215,10.219-1.981-1.281-6.607Z" transform="translate(0 -54.953)" fill="#407bff"/><path d="M202.8,208.833c-.162.137-.327.272-.486.413-.226.2-.447.405-.66.619-.076.076-.173.208-.269.29a.235.235,0,0,1-.051.049c-.048.057-.095.114-.142.172a1.253,1.253,0,0,1-2.218-1.115q.147-.53.289-1.06a.957.957,0,0,1-.113-.141,1.406,1.406,0,0,1-.06-.971,2.28,2.28,0,0,1,.14-.359,2.726,2.726,0,0,1-.543-.731c-.013-.025-.019-.057-.031-.084A20.383,20.383,0,0,0,185,204.007c-12.6,2.443-20.038,14.248-16.642,31.766s14.705,25.688,27.306,23.246a22.686,22.686,0,0,0,3.331-.91c.344-.5.694-.99,1.033-1.491a1.243,1.243,0,0,1,2.092.078c8.47-4.721,12.869-15.186,10.109-29.427C210.622,218.984,207.24,212.8,202.8,208.833Zm-8.465,43.349c-8.451,1.638-15.631-4.146-18.3-17.9s1.833-21.8,10.284-23.439a12.525,12.525,0,0,1,12.2,4.179A1.372,1.372,0,0,1,199,214.8a1.265,1.265,0,0,1,1.467.991,6.607,6.607,0,0,1,.048,1.912,32.713,32.713,0,0,1,4.028,11.052C207.211,242.511,202.712,250.558,194.337,252.182Z" transform="translate(0 -54.953)" fill="#407bff"/><path d="M257.55,225.818l-2.264-11.679-7.222,1.4,2.264,11.68-20.668,4.006,19.771-39.069-8.3,1.609L233.7,208.32a16.7,16.7,0,0,1-1.088,5.312.611.611,0,0,1-1.13,0,6.826,6.826,0,0,1-2.063,4.063.532.532,0,0,1-.558.108l-8.415,16.484,1.043,5.378,12.436-2.41a8.165,8.165,0,0,1,3.655-1.654,19.045,19.045,0,0,1,3.566-.473,8.989,8.989,0,0,1,2.693.2l7.537-1.461,2.562,13.215,7.452-1.445-2.561-13.215,10.219-1.981-1.281-6.607Z" transform="translate(0 -54.953)" fill="#407bff"/><path d="M120.1,193.813l-1.178-6.078,12.2-2.365-.916-4.728L118,183.006l-1.105-5.7,13.809-2.677-.946-4.878L109.911,173.6l1.7,8.765a2.7,2.7,0,0,1,.79.629,3.083,3.083,0,0,1,.653,1.658c.131,1.255-.182,2.544.042,3.757a.539.539,0,0,1-.207.549L115,199.863l20.339-3.943-.946-4.878Z" transform="translate(0 -54.953)" fill="#407bff"/><path d="M155.924,183.17a8.655,8.655,0,0,0,3.842-8.974.569.569,0,0,1-.379.192.592.592,0,0,1-.571-.326,4,4,0,0,1-.27-.976c0-.045,0-.09,0-.135a2.008,2.008,0,0,1-.388-.8.608.608,0,0,1,.474-.7.5.5,0,0,1,.359.066c-1.91-4.276-6.506-6.169-12.523-5l-11.371,2.2,1.537,7.927a.533.533,0,0,1,.273.27,18.066,18.066,0,0,1,1.773,6.266.611.611,0,0,1-.473.7.547.547,0,0,1-.171,0l2.153,11.106,6.079-1.178-1.418-7.318,5.591-1.083,6.484,6.335,6.53-1.266Zm-7.062-2.485-4.953.96-1.775-9.156,4.953-.96c3.715-.721,5.919.6,6.479,3.494C154.118,177.875,152.577,179.965,148.862,180.685Z" transform="translate(0 -54.953)" fill="#407bff"/><path d="M183.508,177.823a8.7,8.7,0,0,0,3.8-9.34c-1.142-5.892-6.238-8.681-13.255-7.32l-11.37,2.2,5.092,26.267,6.079-1.178-1.418-7.318,5.591-1.083,6.484,6.335,6.529-1.266Zm-7.061-2.485-4.954.96-1.775-9.157,4.954-.96c.31-.06.6-.1.893-.13.062-.051.12-.11.184-.159a1.959,1.959,0,0,1,.1-.44.882.882,0,0,1,.854-.576,2.324,2.324,0,0,1,1.011.349.638.638,0,0,1,.19-.155,2.944,2.944,0,0,1,.072-.565.6.6,0,0,1,.764-.367.616.616,0,0,1,.367.763c-.117.46.1.872.059,1.343a.985.985,0,0,1-.1.32,4.257,4.257,0,0,1,2.082,3.112C181.7,172.528,180.162,174.617,176.447,175.338Z" transform="translate(0 -54.953)" fill="#407bff"/><path d="M212.279,156.09c-.1.022-.208.047-.31.077a1.455,1.455,0,0,0-.211.1.87.87,0,0,0-.08.068l.01-.01a.641.641,0,0,1-.34.211.6.6,0,0,1-.449-.092.608.608,0,0,1-.253-.382.614.614,0,0,1,.092-.449,1.164,1.164,0,0,1,.084-.088,15.785,15.785,0,0,0-7.924-.421c-8.293,1.607-13.252,8.564-11.739,16.37s8.712,12.405,17,10.8c8.255-1.6,13.259-8.527,11.739-16.369A13.337,13.337,0,0,0,212.279,156.09Zm-5.119,21a8.564,8.564,0,0,1-3.259-16.811,8.844,8.844,0,0,1,3.4-.012c.042-.136.081-.275.133-.4a.6.6,0,0,1,.687-.383.563.563,0,0,1,.446.451c.116-.034.233-.056.35-.086.079-.248.159-.5.23-.745.039-.141.078-.283.113-.425.018-.07.035-.14.051-.211l.015-.067s0,0,0,0c.02-.12.044-.238.056-.358,0-.045,0-.089.008-.133-.062-.4.359-.879.786-.671l1.186.576a.611.611,0,0,1,.367.763,3.5,3.5,0,0,0-.184.46c-.017.054-.03.109-.046.163l-.009.036c0,.025-.009.05-.013.075a4.641,4.641,0,0,0-.049.716,9.422,9.422,0,0,1-.1,1.7.554.554,0,0,1,.018.414.582.582,0,0,1-.11.18,8.867,8.867,0,0,1,2.508,4.771A8.161,8.161,0,0,1,207.16,177.093Z" transform="translate(0 -54.953)" fill="#407bff"/><path d="M246.661,157.746c-.033-.012-.069-.015-.1-.029a1.886,1.886,0,0,1-.647-.38,4.55,4.55,0,0,1-.311.44.612.612,0,0,1-.832.161.6.6,0,0,1-.161-.831,5.661,5.661,0,0,0,1.081-2.735c-1.991-4.059-6.507-5.835-12.379-4.7l-11.37,2.2,5.092,26.268,6.079-1.179-1.418-7.317,5.591-1.084,6.484,6.336,6.53-1.266-7.528-7.3A8.622,8.622,0,0,0,246.661,157.746Zm-10.953,6.1-4.954.96-1.775-9.156,4.954-.96c3.715-.72,5.918.605,6.479,3.5C240.964,161.04,239.423,163.13,235.708,163.85Z" transform="translate(0 -54.953)" fill="#407bff"/><path d="M280.466,208.419l-1.514.293a.6.6,0,0,1-.509-1.037c.019-.021.041-.036.06-.056-.434.187-.865.383-1.309.547a18.013,18.013,0,0,0-.022,1.958l9.864,50.887L250.5,268.093a.564.564,0,0,1,.026.217.6.6,0,0,1-.643.55c-.6-.114-1.193-.22-1.794-.3l-48.38,9.378a.635.635,0,0,1-.081.238,7.359,7.359,0,0,1-.612.884,1.1,1.1,0,0,1-.056.533,18.055,18.055,0,0,1-1.454,3.226,1.3,1.3,0,0,1-.8.529,1.118,1.118,0,0,1-.632-.05,6.89,6.89,0,0,0-.5,1.553L273.1,269.825c.028-.031.047-.068.076-.1a4.5,4.5,0,0,1,3.394-1.213,6.328,6.328,0,0,1,1.558-1.295,1.693,1.693,0,0,1,2.628.839,21.836,21.836,0,0,1,2.3-.163l11.021-2.137-10.743-55.424A7.138,7.138,0,0,1,280.466,208.419Z" transform="translate(0 -54.953)" fill="#407bff"/><path d="M180.255,135.905c.122.031.243.05.365.074l7.231-1.4c.8-.351,1.584-.719,2.364-1.051a13.819,13.819,0,0,1,4.62-1.267,7.286,7.286,0,0,1,2.8.421l62.184-12.054,5.766,29.746a.6.6,0,0,1,1.09.2,17.436,17.436,0,0,1,.54,4.041,5.156,5.156,0,0,1-.445,1.875l9.815,50.632c.592-.218,1.173-.459,1.746-.717a2.651,2.651,0,0,1,1.114-1.738,1.922,1.922,0,0,1,1.336-.1,7.482,7.482,0,0,0,.506-1.633,10.2,10.2,0,0,0,.192-2.095l-.4-2.052c-.044-.105-.085-.212-.139-.312a.516.516,0,0,1-.017-.5l-10.316-53.216a.762.762,0,0,1-.185.031,2.038,2.038,0,0,1-1.869-.87,2.948,2.948,0,0,1-.246-1.886c.092-.751.286-1.484.431-2.225a5.86,5.86,0,0,0,.147-2.025.55.55,0,0,1,.256-.589l-4.576-23.6-89.655,17.379a10.531,10.531,0,0,1-5.482,1.428.541.541,0,0,1-.444-.28l-44.49,8.625a.626.626,0,0,1-.476.48l-2.336.453a1.938,1.938,0,0,1-.306.989.588.588,0,0,1-.191.367c-.157.121-.3.26-.445.4-.268.253-.524.522-.8.761a.756.756,0,0,1-.346.184.622.622,0,0,1-.566-.193.607.607,0,0,1-.148-.445.5.5,0,0,1,.039-.168c-.363-.013-.724-.049-1.07-.094a.612.612,0,0,1-.551-.643.6.6,0,0,1,.644-.551,10.019,10.019,0,0,0,1.135.093c.093,0,.186,0,.279,0a.166.166,0,0,1,.031,0l-.013,0a.528.528,0,0,0,.131-.011c.016,0,.032-.007.048-.009a1.254,1.254,0,0,1-.755-.415.48.48,0,0,1-.055-.075l-25.761,4.994a.634.634,0,0,1,.342.086.6.6,0,0,1,.161.831,5.8,5.8,0,0,1-.691.761.621.621,0,0,1-.071.074l.011-.009,0,0c.043-.054.064-.045,0,0a1.876,1.876,0,0,0-.114.166c-.014.036-.029.072-.041.109s-.02.062-.027.094-.007.041-.009.062a.607.607,0,0,1-.933.45.173.173,0,0,0-.027-.016l-.018-.008c-.054-.022-.11-.041-.165-.06s-.132-.038-.2-.058a1.522,1.522,0,0,1-.213.8.563.563,0,0,1-.524.247,5.432,5.432,0,0,1-.561,1.609,4.025,4.025,0,0,1-1.2,1.3c.012.012.033.019.043.033a2.085,2.085,0,0,1,.241.415l38.3-7.424c.015-.02.03-.039.044-.059a2.926,2.926,0,0,1,.624-.706,1.335,1.335,0,0,1,1.161-.215,2.52,2.52,0,0,1,.866.458l49.594-9.613A.608.608,0,0,1,180.255,135.905Z" transform="translate(0 -54.953)" fill="#407bff"/><path d="M113.572,294.636l-8.984-46.349a.617.617,0,0,1-.648.177.6.6,0,0,1-.367-.763,3.965,3.965,0,0,1,.666-1.213L92.433,185.582c-.037-.064-.078-.124-.112-.19a5.844,5.844,0,0,1-.509-1.558,3.727,3.727,0,0,0-.625.024.609.609,0,0,1-.711-.634,6.56,6.56,0,0,1,.862-3.29l-4.777-24.642c-.078-.133-.149-.27-.215-.41s-.153-.3-.234-.447a.539.539,0,0,1-.47-.307.6.6,0,0,1,.27-.8,1.805,1.805,0,0,0,.663-.428,2.072,2.072,0,0,0,.338-.522,3.9,3.9,0,0,0,.244-1.321,1.862,1.862,0,0,1-.317-.679,2.235,2.235,0,0,1,.092-1,.474.474,0,0,1,.131-.217c-.036-.379-.067-.761-.086-1.143l-7.65,1.483,21.832,112.623a.492.492,0,0,1,.652.156,3.244,3.244,0,0,1,.865,2.247,1.9,1.9,0,0,1-.137.484.569.569,0,0,1,.2.66,2.932,2.932,0,0,0-.269,1.857,12.578,12.578,0,0,0,.512,1.751,4.6,4.6,0,0,1,.139,2.959l5.7,29.429,1.62-.314a21.513,21.513,0,0,1,2.78-.729.466.466,0,0,1,.088-.4,7.054,7.054,0,0,1,.762-.783.667.667,0,0,1,0-.317,3.276,3.276,0,0,1,1.111-1.755,2.577,2.577,0,0,1,1.738-.494,4.077,4.077,0,0,1,2.94,1.875c1.642-.406,3.416-.971,4.966-.187l62.156-12.048a3.835,3.835,0,0,1,.1-.479,4.646,4.646,0,0,1,1.371-2.086.521.521,0,0,0,.777-.15.6.6,0,0,1,.845.055c.08.1.162.2.251.3.034.037.07.073.106.108l.008.009.01.007a1.5,1.5,0,0,0,.186.128l.035.019.033.016c.072.032.143.067.214.1a2.91,2.91,0,0,1-.027-1.785,2.55,2.55,0,0,1,1.386-1.456.592.592,0,0,1,.357-.93.606.606,0,0,1,.476,1.067.592.592,0,0,1,.066.082.6.6,0,0,1-.27.8c-.079.033-.157.068-.233.108-.04.021-.082.048-.123.072.028-.012.028,0-.047.029-.024.017-.047.035-.07.053a2,2,0,0,0-.154.138l-.025.029.031-.042c-.018.025-.039.047-.058.071a1.7,1.7,0,0,0-.1.148l-.038.064c-.023.054-.046.107-.065.162l0,.008a3.455,3.455,0,0,1,.69-.7,2.645,2.645,0,0,1,.553-.3c.493-1.076.95-2.172,1.41-3.252Z" transform="translate(0 -54.953)" fill="#407bff"/></g><g id="Speech_bubble" data-name="Speech bubble"><path d="M193.768,316.663h42.737a8.845,8.845,0,0,1,8.846,8.846v15a8.846,8.846,0,0,1-8.846,8.846h-28.4l-12.981,13.9,7.031-13.9h-8.387a8.846,8.846,0,0,1-8.846-8.846v-15A8.845,8.845,0,0,1,193.768,316.663Z" transform="translate(0 -54.953)" fill="#407bff"/><path d="M193.768,316.663h42.737a8.845,8.845,0,0,1,8.846,8.846v15a8.846,8.846,0,0,1-8.846,8.846h-28.4l-12.981,13.9,7.031-13.9h-8.387a8.846,8.846,0,0,1-8.846-8.846v-15A8.845,8.845,0,0,1,193.768,316.663Z" transform="translate(0 -54.953)" fill="#fff" opacity="0.7"/><path d="M195.858,332.185a5.073,5.073,0,1,1,5.083,4.878A4.849,4.849,0,0,1,195.858,332.185Zm8.776,0a3.706,3.706,0,1,0-3.693,3.666A3.58,3.58,0,0,0,204.634,332.185Z" transform="translate(0 -54.953)" fill="#407bff"/><path d="M207.222,333.343a3.754,3.754,0,1,1,3.76,3.692A3.593,3.593,0,0,1,207.222,333.343Zm6.185,0a2.435,2.435,0,1,0-2.425,2.548A2.368,2.368,0,0,0,213.407,333.343Z" transform="translate(0 -54.953)" fill="#407bff"/><path d="M224.021,333.343a3.508,3.508,0,0,1-3.652,3.692,3.082,3.082,0,0,1-2.521-1.171V339.6H216.54v-9.866h1.254v1.145a3.072,3.072,0,0,1,2.575-1.213A3.506,3.506,0,0,1,224.021,333.343Zm-1.322,0a2.435,2.435,0,1,0-2.439,2.548A2.387,2.387,0,0,0,222.7,333.343Z" transform="translate(0 -54.953)" fill="#407bff"/><path d="M224.919,336.19l.545-1.035A4.639,4.639,0,0,0,228,335.9c1.213,0,1.717-.367,1.717-.98,0-1.622-4.565-.219-4.565-3.094,0-1.294,1.159-2.166,3.011-2.166a5.249,5.249,0,0,1,2.63.654l-.559,1.035a3.771,3.771,0,0,0-2.084-.572c-1.145,0-1.7.423-1.7,1,0,1.7,4.579.313,4.579,3.121,0,1.307-1.2,2.138-3.121,2.138A5.2,5.2,0,0,1,224.919,336.19Z" transform="translate(0 -54.953)" fill="#407bff"/><path d="M232.357,336.163a.868.868,0,0,1,.9-.872.872.872,0,0,1,0,1.744A.875.875,0,0,1,232.357,336.163Zm.123-8.747h1.54l-.259,6.526h-1.035Z" transform="translate(0 -54.953)" fill="#407bff"/></g><g id="Character_2" data-name="Character 2"><path d="M442.947,160.78c0,3.26-17.83,6.06-43.37,7.29-.68.03-1.36.06-2.05.1-.91.03-1.83.07-2.76.11-3.83.15-7.81.26-11.91.35-.61,0-1.22.01-1.84.03-.35,0-.7.01-1.05.01-3.15.05-6.37.07-9.64.07-5.92,0-11.67-.08-17.18-.22-1.35-.04-2.69-.08-4.01-.13-10.05-.33-19.17-.9-26.85-1.64-15.07-1.46-24.58-3.59-24.58-5.97,0-3.59,21.6-6.61,51.31-7.61.77-.03,1.55-.05,2.33-.08q3.105-.09,6.31-.15c2.57-.05,5.19-.08,7.84-.1.2,0,.39-.01.58-.01h.01c1.4-.01,2.82-.01,4.24-.01,7.48,0,14.7.12,21.49.36,1.09.03,2.16.07,3.22.11,1.42.06,2.81.12,4.19.18h.01l1.09.06c.94.04,1.87.09,2.79.14C426.747,154.99,442.947,157.67,442.947,160.78Z" transform="translate(0 -54.953)" fill="#263238"/><path d="M442.947,160.78c0,3.26-17.83,6.06-43.37,7.29-.68.03-1.36.06-2.05.1-.91.03-1.83.07-2.76.11-3.83.15-7.81.26-11.91.35-.61,0-1.22.01-1.84.03-.35,0-.7.01-1.05.01-3.15.05-6.37.07-9.64.07-5.92,0-11.67-.08-17.18-.22-1.35-.04-2.69-.08-4.01-.13-10.05-.33-19.17-.9-26.85-1.64-15.07-1.46-24.58-3.59-24.58-5.97,0-1.06,1.89-2.08,5.32-3a129.028,129.028,0,0,0,19.26,2.97c7.68.74,16.8,1.31,26.85,1.64,1.32.05,2.66.09,4.01.13,5.51.14,11.26.22,17.18.22,3.27,0,6.49-.02,9.64-.07.35,0,.7-.01,1.05-.01.62-.02,1.23-.03,1.84-.03,4.1-.09,8.08-.2,11.91-.35.93-.04,1.85-.08,2.76-.11.69-.04,1.37-.07,2.05-.1,17.23-.83,30.94-2.37,38.05-4.29C441.057,158.71,442.947,159.71,442.947,160.78Z" transform="translate(0 -54.953)" fill="#fff" opacity="0.4"/><path d="M365.5,152.84a5.651,5.651,0,0,1-1.28,3.25c-.83.99-1.54,1.76-2.35,2.59-.48.49-.96.98-1.45,1.44-.32.33-.65.64-.98.94a54.991,54.991,0,0,1-5.36,4.36c-.11.08-.22.15-.33.23-.29.2-.58.39-.87.58a32.937,32.937,0,0,1-3.74,2.16c-.48.24-.97.47-1.48.69a26.249,26.249,0,0,1-3.69,1.24c-1.12.3-2.19.56-3.25.78-1.49.33-2.96.63-4.43.9-2.73.53-5.45.98-8.19,1.4-2.33.35-4.66.68-7,.96-1.88.23-3.76.43-5.66.59a2.642,2.642,0,0,1-.63-.02,2.81,2.81,0,0,1-2.42-2.55,2.409,2.409,0,0,1,0-.38,2.788,2.788,0,0,1,1.85-2.5l.01-.01a2.25,2.25,0,0,1,.24-.08c2.59-.93,5.19-1.81,7.8-2.66,1.32-.43,2.63-.86,3.95-1.28,3.99-1.3,8.01-2.52,11.89-3.81.97-.32,1.93-.65,2.82-.97a11.336,11.336,0,0,0,2.2-1.01c.45-.26.9-.55,1.36-.86a34.065,34.065,0,0,0,2.91-2.19c1.32-1.09,2.64-2.29,3.93-3.54q3.105-.09,6.31-.15C360.227,152.89,362.847,152.86,365.5,152.84Z" transform="translate(0 -54.953)" fill="#ffb573"/><path d="M365.617,156.88c-.07.21-.15.41-.23.61s-.17.4-.27.6a5.124,5.124,0,0,1-.3.57l-.33.57c-.01.02-.02.03-.03.05q-.345.525-.72,1.02c-.27.35-.55.69-.85,1.01l-.28.31a17.132,17.132,0,0,1-1.38,1.32c-.16.15-.33.29-.5.42a1.345,1.345,0,0,1-.19.16.138.138,0,0,1-.04.03v.01a31.007,31.007,0,0,1-4.8,3.15c-.22.11-.43.22-.61.31-.01,0-.02.01-.03.01-.25.13-.46.23-.6.3s-.23.1-.23.1l-.73-.64-.62-.56-1.4-1.24-6.97-6.17-.53-.47s2.14-2.39,5.04-5.18c.77-.03,1.55-.05,2.33-.08q3.105-.09,6.31-.15c2.57-.05,5.19-.08,7.84-.1.2,0,.39-.01.58-.01A9.463,9.463,0,0,1,365.617,156.88Z" transform="translate(0 -54.953)" fill="#407bff"/><path d="M365.627,156.88a6.435,6.435,0,0,1-.24.61q-.12.3-.27.6a5.124,5.124,0,0,1-.3.57l-.33.57c-.01.02-.02.03-.03.05q-.345.525-.72,1.02c-.27.35-.55.69-.85,1.01l-.28.31a17.132,17.132,0,0,1-1.38,1.32c-.16.15-.33.29-.5.42a1.345,1.345,0,0,1-.19.16c-.01.02-.03.03-.04.04a31.007,31.007,0,0,1-4.8,3.15c-.22.11-.43.22-.61.31-.01,0-.02.01-.03.01-.25.13-.46.23-.6.3s-.23.1-.23.1l-.73-.64-.62-.56-1.4-1.24-6.97-6.17-.53-.47s2.14-2.39,5.04-5.18c.77-.03,1.55-.05,2.33-.08q3.105-.09,6.31-.15c2.57-.05,5.19-.08,7.84-.1.2,0,.39-.01.58-.01h.01A9.446,9.446,0,0,1,365.627,156.88Z" transform="translate(0 -54.953)" fill="#fff" opacity="0.7"/><path d="M360.5,163.561a30.464,30.464,0,0,1-6.27,3.87l-2.75-2.44a24.536,24.536,0,0,1,7.555-10.946C360.25,156.325,360.646,161.171,360.5,163.561Z" transform="translate(0 -54.953)" opacity="0.1"/><path d="M315.283,169.531l-9.294-1.418.074,8.219s6.357,1.9,9.723-2.413Z" transform="translate(0 -54.953)" fill="#ebb376"/><polygon points="299.674 115.375 301.196 121.488 306.063 121.38 305.989 113.161 299.674 115.375" fill="#ebb376"/><path d="M399.227,153.47c-.08.21-.17.42-.25.64-.24.61-.47,1.23-.69,1.85-.14.38-.27.76-.4,1.15s-.27.78-.39,1.17c-.37,1.16-.73,2.33-1.08,3.52a1.332,1.332,0,0,1-.05.19c-.373,1.321-.712,2.669-1.049,4.017l-.041.163c-.17.7-.35,1.4-.51,2.11-.08.32-.15.63-.22.95-.27,1.23-.53,2.47-.77,3.7,0,.01,0,.01-.01.01-.09.46-.18.92-.26,1.37-.1.48-.19.96-.27,1.43-.02.1-.04.2-.05.3-.05.26-.1.52-.14.78-.13.73-.25,1.45-.37,2.16-.02.11-.03.21-.05.32l-.12.75c-.24,1.46-.45,2.89-.64,4.28a2,2,0,0,0-.04.24c-.21,1.53-.39,3.01-.55,4.43-.07.59-.14,1.17-.2,1.74-.09.8-.17,1.57-.24,2.32-.06.55-.11,1.09-.16,1.61-.05.49-.09.97-.13,1.43s-.08.92-.12,1.35c-.1,1.22-.18,2.32-.25,3.27-.03.42-.05.8-.08,1.16-.08,1.33-.12,2.26-.14,2.68-.01.17-.01.26-.01.26l-17.73-1.63-.26-.02-2.98-.28-4.51-.42h-.01l-5.42-.5-1.31-.12-6.63-.61c-.03-.63-.06-1.24-.07-1.86v-.02c-.01-.17-.02-.34-.02-.51-.19-5.46-.09-10.47.2-15.04q.24-3.555.62-6.77c.36-3.08.81-5.91,1.32-8.52.11-.59.23-1.17.35-1.73v-.01c.08-.39.16-.76.25-1.13a88.027,88.027,0,0,1,2.48-8.88v-.01c.48-1.4.96-2.67,1.43-3.82,2.57-.05,5.19-.08,7.84-.1.2,0,.39-.01.58-.01h.01c1.4-.01,2.82-.01,4.24-.01,7.48,0,14.7.12,21.49.36,1.09.03,2.16.07,3.22.11C396.457,153.35,397.847,153.41,399.227,153.47Z" transform="translate(0 -54.953)" fill="#407bff"/><path d="M399.227,153.47c-.08.21-.17.42-.25.64-.24.61-.47,1.23-.69,1.85-.14.38-.27.76-.4,1.15s-.27.78-.39,1.17c-.01.02-.02.05-.03.07-.37,1.14-.71,2.28-1.05,3.45a1.332,1.332,0,0,1-.05.19c-.48,1.7-.93,3.43-1.35,5.17-.09.37-.17.75-.25,1.12-.08.32-.15.63-.22.95-.27,1.23-.53,2.47-.77,3.7q-.15.69-.27,1.38c-.09.47-.18.95-.26,1.42-.03.1-.04.21-.06.31-.05.26-.1.52-.14.78-.13.73-.25,1.45-.37,2.16-.02.11-.03.21-.05.32l-.12.75c-.23,1.46-.45,2.89-.64,4.28a2,2,0,0,0-.04.24c-.21,1.53-.39,3.01-.55,4.43-.07.59-.14,1.17-.2,1.74-.09.8-.17,1.57-.24,2.32-.06.55-.11,1.09-.16,1.61-.05.49-.09.97-.13,1.43s-.08.92-.12,1.35c-.1,1.22-.18,2.32-.25,3.27-.03.42-.05.8-.08,1.16-.08,1.33-.12,2.26-.14,2.68-.01.17-.01.26-.01.26l-17.73-1.63-.26-.02-2.98-.28-4.51-.42h-.01l-5.42-.5-1.31-.12-6.63-.61c-.03-.63-.06-1.24-.07-1.86v-.02c-.01-.17-.02-.34-.02-.51-.19-5.46-.09-10.47.2-15.04q.24-3.555.62-6.77c.36-3.08.81-5.91,1.32-8.52.11-.59.23-1.17.35-1.73v-.01c.08-.39.16-.76.25-1.13a88.027,88.027,0,0,1,2.48-8.88v-.01c.48-1.4.96-2.67,1.43-3.82,2.57-.05,5.19-.08,7.84-.1.2,0,.39-.01.58-.01h.01c1.4-.01,2.82-.01,4.24-.01,7.48,0,14.7.12,21.49.36,1.09.03,2.16.07,3.22.11C396.457,153.35,397.847,153.41,399.227,153.47Z" transform="translate(0 -54.953)" fill="#fff" opacity="0.7"/><path d="M303.5,286.2s12.518-5.165,12.929-10.35A.888.888,0,0,1,317.4,275l9.546.584a1.245,1.245,0,0,1,1.044.736l3.821,8.827-2.644.362-1.12-1.206-.968,1.491c-14.354,1.964-20.578,2.659-23.542,2.153C302.95,286.736,303.5,286.2,303.5,286.2Z" transform="translate(0 -54.953)"/><path d="M362.087,234.265c-.55-.12-.852-.2-.852-.2l-45.009-5.626,13.381,47.653-13.628,1.3s-31.082-59.951-18.377-68.6,52.075.9,52.075.9l1.548-11.87,39.158,2.916C396.69,239.868,367.493,235.4,362.087,234.265Z" transform="translate(0 -54.953)" fill="#263238"/><path d="M349.123,371.933s13.481-1.291,15.386-6.131a.886.886,0,0,1,1.171-.533l8.962,3.342a1.244,1.244,0,0,1,.783,1.008l1.082,9.558-2.635-.425-.719-1.48-1.361,1.144c-14.3-2.307-20.459-3.456-23.147-4.805C348.439,372.281,349.123,371.933,349.123,371.933Z" transform="translate(0 -54.953)"/><path d="M390.794,214.92v.01c-.055.238-1.683,7.744-3.819,18.487-.117.614-.241,1.248-.365,1.883-1,5.112-2.1,10.856-3.178,16.851-1.328,7.292-2.63,14.952-3.731,22.272a241.978,241.978,0,0,0-2.911,27.511c-.525,23.162-1.486,68.884-1.486,68.884l-12.477-1.961s-6.892-48.756-6.809-72.372c.057-15.008,3.783-45.9,6.317-65.124C363.623,221.5,364.6,214.7,364.6,214.7l14.13.122Z" transform="translate(0 -54.953)" fill="#263238"/><polygon points="389.806 149.6 390.636 149.665 390.604 146.963 389.867 146.906 389.806 149.6" fill="#263238"/><polygon points="359.031 147.209 375.734 148.507 375.808 145.819 359.172 144.533 359.031 147.209" fill="#263238"/><polygon points="357.883 144.433 350.821 143.887 350.568 146.551 357.717 147.107 357.883 144.433" fill="#263238"/><polygon points="388.578 146.806 377.092 145.918 377.044 148.609 388.491 149.498 388.578 146.806" fill="#263238"/><g opacity="0.2"><polygon points="389.806 149.6 390.636 149.665 390.604 146.963 389.867 146.906 389.806 149.6" fill="#fff"/><polygon points="359.031 147.209 375.734 148.507 375.808 145.819 359.172 144.533 359.031 147.209" fill="#fff"/><polygon points="357.883 144.433 350.821 143.887 350.568 146.551 357.717 147.107 357.883 144.433" fill="#fff"/><polygon points="388.578 146.806 377.092 145.918 377.044 148.609 388.491 149.498 388.578 146.806" fill="#fff"/></g><path d="M364.254,200.386l-.065,1.632a.488.488,0,0,0,.443.5l4.164.389a.488.488,0,0,0,.534-.474l.04-1.7a.489.489,0,0,0-.451-.5l-4.139-.32A.489.489,0,0,0,364.254,200.386Z" transform="translate(0 -54.953)" fill="none" stroke="#fff" stroke-miterlimit="10" stroke-width="0.726"/><line x1="367.509" y1="146.465" x2="368.78" y2="146.585" fill="none" stroke="#fff" stroke-linecap="round" stroke-linejoin="round" stroke-width="0.726"/><path d="M396.366,161.991c-.48,1.7-.93,3.43-1.35,5.17-.16.69-.32,1.38-.47,2.07-.75,3.39-1.39,6.79-1.92,10.07l-.12.75c-6.87,2.21-14.01.69-13.77-5.93.33-8.87,7.89-13.02,7.89-13.02C389.946,159.281,393.526,160.021,396.366,161.991Z" transform="translate(0 -54.953)" opacity="0.1"/><polygon points="329.16 361.054 338.409 361.054 308.333 123.352 299.083 123.352 329.16 361.054" fill="#263238"/><polygon points="329.16 361.054 338.409 361.054 308.333 123.352 299.083 123.352 329.16 361.054" fill="#fff" opacity="0.4"/><path d="M309.824,213.539h29.4a1.926,1.926,0,0,0,1.693-1.2l1.868-3.959H306.263l1.868,3.959A1.927,1.927,0,0,0,309.824,213.539Z" transform="translate(0 -54.953)" fill="#263238"/><path d="M309.824,213.539h29.4a1.926,1.926,0,0,0,1.693-1.2l1.868-3.959H306.263l1.868,3.959A1.927,1.927,0,0,0,309.824,213.539Z" transform="translate(0 -54.953)" fill="#fff" opacity="0.4"/><rect x="304.847" y="206.017" width="39.356" height="4.248" rx="1.913" transform="translate(649.051 361.328) rotate(180)" fill="#263238"/><rect x="304.847" y="206.017" width="39.356" height="4.248" rx="1.913" transform="translate(649.051 361.328) rotate(180)" fill="#fff" opacity="0.1"/><path d="M315.187,247.515h29.4a1.927,1.927,0,0,0,1.693-1.2l1.868-3.958H311.626l1.868,3.958A1.927,1.927,0,0,0,315.187,247.515Z" transform="translate(0 -54.953)" fill="#263238"/><path d="M315.187,247.515h29.4a1.927,1.927,0,0,0,1.693-1.2l1.868-3.958H311.626l1.868,3.958A1.927,1.927,0,0,0,315.187,247.515Z" transform="translate(0 -54.953)" fill="#fff" opacity="0.4"/><path d="M312.123,239.992h35.531a1.913,1.913,0,0,1,1.913,1.913v.422a1.913,1.913,0,0,1-1.913,1.913H312.123a1.912,1.912,0,0,1-1.912-1.912V241.9A1.912,1.912,0,0,1,312.123,239.992Z" transform="translate(659.777 429.279) rotate(180)" fill="#263238"/><path d="M312.123,239.992h35.531a1.913,1.913,0,0,1,1.913,1.913v.422a1.913,1.913,0,0,1-1.913,1.913H312.123a1.912,1.912,0,0,1-1.912-1.912V241.9A1.912,1.912,0,0,1,312.123,239.992Z" transform="translate(659.777 429.279) rotate(180)" fill="#fff" opacity="0.1"/><path d="M320.55,292.494h29.4a1.927,1.927,0,0,0,1.693-1.2l1.868-3.958H316.989l1.868,3.958A1.927,1.927,0,0,0,320.55,292.494Z" transform="translate(0 -54.953)" fill="#263238"/><path d="M320.55,292.494h29.4a1.927,1.927,0,0,0,1.693-1.2l1.868-3.958H316.989l1.868,3.958A1.927,1.927,0,0,0,320.55,292.494Z" transform="translate(0 -54.953)" fill="#fff" opacity="0.4"/><rect x="315.573" y="284.971" width="39.356" height="4.248" rx="1.913" transform="translate(670.503 519.238) rotate(180)" fill="#263238"/><rect x="315.573" y="284.971" width="39.356" height="4.248" rx="1.913" transform="translate(670.503 519.238) rotate(180)" fill="#fff" opacity="0.1"/><path d="M325.913,337.473h29.4a1.927,1.927,0,0,0,1.693-1.2l1.868-3.958H322.352l1.868,3.958A1.926,1.926,0,0,0,325.913,337.473Z" transform="translate(0 -54.953)" fill="#263238"/><path d="M325.913,337.473h29.4a1.927,1.927,0,0,0,1.693-1.2l1.868-3.958H322.352l1.868,3.958A1.926,1.926,0,0,0,325.913,337.473Z" transform="translate(0 -54.953)" fill="#fff" opacity="0.4"/><rect x="320.936" y="329.95" width="39.356" height="4.248" rx="1.913" transform="translate(681.229 609.196) rotate(180)" fill="#263238"/><rect x="320.936" y="329.95" width="39.356" height="4.248" rx="1.913" transform="translate(681.229 609.196) rotate(180)" fill="#fff" opacity="0.1"/><path d="M331.276,382.452h29.4a1.927,1.927,0,0,0,1.693-1.2l1.868-3.959H327.715l1.868,3.959A1.925,1.925,0,0,0,331.276,382.452Z" transform="translate(0 -54.953)" fill="#263238"/><path d="M331.276,382.452h29.4a1.927,1.927,0,0,0,1.693-1.2l1.868-3.959H327.715l1.868,3.959A1.925,1.925,0,0,0,331.276,382.452Z" transform="translate(0 -54.953)" fill="#fff" opacity="0.4"/><rect x="326.299" y="374.93" width="39.356" height="4.247" rx="1.913" transform="translate(691.955 699.154) rotate(180)" fill="#263238"/><rect x="326.299" y="374.93" width="39.356" height="4.247" rx="1.913" transform="translate(691.955 699.154) rotate(180)" fill="#fff" opacity="0.1"/><polygon points="364.866 361.054 374.116 361.054 344.04 123.352 334.79 123.352 364.866 361.054" fill="#263238"/><polygon points="364.866 361.054 374.116 361.054 344.04 123.352 334.79 123.352 364.866 361.054" fill="#fff" opacity="0.7"/><polygon points="267.757 361.054 258.507 361.054 288.584 123.352 297.833 123.352 267.757 361.054" fill="#263238"/><polygon points="267.757 361.054 258.507 361.054 288.584 123.352 297.833 123.352 267.757 361.054" fill="#fff" opacity="0.4"/><path d="M322.8,213.539H293.4a1.927,1.927,0,0,1-1.694-1.2l-1.868-3.959H326.36l-1.867,3.959A1.927,1.927,0,0,1,322.8,213.539Z" transform="translate(0 -54.953)" fill="#263238"/><path d="M322.8,213.539H293.4a1.927,1.927,0,0,1-1.694-1.2l-1.868-3.959H326.36l-1.867,3.959A1.927,1.927,0,0,1,322.8,213.539Z" transform="translate(0 -54.953)" fill="#fff" opacity="0.5"/><rect x="288.42" y="151.064" width="39.356" height="4.248" rx="1.913" fill="#263238"/><rect x="288.42" y="151.064" width="39.356" height="4.248" rx="1.913" fill="#fff" opacity="0.2"/><path d="M317.436,247.515h-29.4a1.927,1.927,0,0,1-1.694-1.2l-1.868-3.958H321l-1.868,3.958A1.927,1.927,0,0,1,317.436,247.515Z" transform="translate(0 -54.953)" fill="#263238"/><path d="M317.436,247.515h-29.4a1.927,1.927,0,0,1-1.694-1.2l-1.868-3.958H321l-1.868,3.958A1.927,1.927,0,0,1,317.436,247.515Z" transform="translate(0 -54.953)" fill="#fff" opacity="0.5"/><path d="M284.97,185.04H320.5a1.912,1.912,0,0,1,1.912,1.912v.423a1.912,1.912,0,0,1-1.912,1.912H284.97a1.913,1.913,0,0,1-1.913-1.913v-.422a1.913,1.913,0,0,1,1.913-1.913Z" fill="#263238"/><path d="M284.97,185.04H320.5a1.912,1.912,0,0,1,1.912,1.912v.423a1.912,1.912,0,0,1-1.912,1.912H284.97a1.913,1.913,0,0,1-1.913-1.913v-.422a1.913,1.913,0,0,1,1.913-1.913Z" fill="#fff" opacity="0.2"/><path d="M312.073,292.494h-29.4a1.927,1.927,0,0,1-1.694-1.2l-1.867-3.958h36.525l-1.868,3.958A1.927,1.927,0,0,1,312.073,292.494Z" transform="translate(0 -54.953)" fill="#263238"/><path d="M312.073,292.494h-29.4a1.927,1.927,0,0,1-1.694-1.2l-1.867-3.958h36.525l-1.868,3.958A1.927,1.927,0,0,1,312.073,292.494Z" transform="translate(0 -54.953)" fill="#fff" opacity="0.5"/><rect x="277.694" y="230.019" width="39.356" height="4.248" rx="1.913" fill="#263238"/><rect x="277.694" y="230.019" width="39.356" height="4.248" rx="1.913" fill="#fff" opacity="0.2"/><path d="M306.711,337.473h-29.4a1.927,1.927,0,0,1-1.694-1.2l-1.867-3.958h36.525l-1.868,3.958A1.927,1.927,0,0,1,306.711,337.473Z" transform="translate(0 -54.953)" fill="#263238"/><path d="M306.711,337.473h-29.4a1.927,1.927,0,0,1-1.694-1.2l-1.867-3.958h36.525l-1.868,3.958A1.927,1.927,0,0,1,306.711,337.473Z" transform="translate(0 -54.953)" fill="#fff" opacity="0.5"/><rect x="272.331" y="274.998" width="39.356" height="4.248" rx="1.913" fill="#263238"/><rect x="272.331" y="274.998" width="39.356" height="4.248" rx="1.913" fill="#fff" opacity="0.2"/><path d="M301.348,382.452h-29.4a1.925,1.925,0,0,1-1.693-1.2l-1.868-3.959h36.525l-1.868,3.959A1.927,1.927,0,0,1,301.348,382.452Z" transform="translate(0 -54.953)" fill="#263238"/><path d="M301.348,382.452h-29.4a1.925,1.925,0,0,1-1.693-1.2l-1.868-3.959h36.525l-1.868,3.959A1.927,1.927,0,0,1,301.348,382.452Z" transform="translate(0 -54.953)" fill="#fff" opacity="0.5"/><rect x="266.968" y="319.977" width="39.356" height="4.247" rx="1.913" fill="#263238"/><rect x="266.968" y="319.977" width="39.356" height="4.247" rx="1.913" fill="#fff" opacity="0.2"/><polygon points="303.464 361.054 294.214 361.054 324.291 123.352 333.54 123.352 303.464 361.054" fill="#263238"/><polygon points="303.464 361.054 294.214 361.054 324.291 123.352 333.54 123.352 303.464 361.054" fill="#fff" opacity="0.7"/><path d="M345.522,179.518H286.9a1.927,1.927,0,0,1-1.694-1.2l-1.868-3.958h65.74l-1.868,3.958A1.927,1.927,0,0,1,345.522,179.518Z" transform="translate(0 -54.953)" fill="#263238"/><path d="M345.522,179.518H286.9a1.927,1.927,0,0,1-1.694-1.2l-1.868-3.958h65.74l-1.868,3.958A1.927,1.927,0,0,1,345.522,179.518Z" transform="translate(0 -54.953)" fill="#fff" opacity="0.5"/><rect x="281.928" y="117.043" width="68.571" height="4.247" rx="1.913" fill="#263238"/><rect x="281.928" y="117.043" width="68.571" height="4.247" rx="1.913" fill="#fff" opacity="0.2"/><path d="M349.619,178.526l-7.686-5.414-3.6,7.389s4.841,4.54,9.779,2.177Z" transform="translate(0 -54.953)" fill="#ebb376"/><polygon points="335.293 117.325 333.929 123.475 338.333 125.549 341.933 118.16 335.293 117.325" fill="#ebb376"/><path d="M402.187,161.43c-1.51,2.33-3.05,4.56-4.66,6.74-1.21,1.61-2.45,3.2-3.75,4.76,0,.01,0,.01-.01.01-.39.48-.79.95-1.19,1.42-.79.91-1.59,1.82-2.43,2.72-1.04,1.12-2.13,2.22-3.3,3.3-.22.2-.44.4-.67.6h-.02a31.634,31.634,0,0,1-2.75,2.27,19.79,19.79,0,0,1-4.65,2.59,10.469,10.469,0,0,1-1.51.46c-.49.12-.91.18-1.36.26a23.1,23.1,0,0,1-2.39.2c-1.51.05-2.92.01-4.31-.07-2.76-.15-5.42-.52-8.05-.91-3.36-.53-6.66-1.19-9.93-1.97-1.21-.28-2.41-.59-3.61-.91-.64-.17-1.27-.35-1.91-.53a2.787,2.787,0,0,1-2.03-2.86,3.133,3.133,0,0,1,.1-.6,2.762,2.762,0,0,1,2.28-2.01,2.195,2.195,0,0,1,.51-.04l.05.01c.23.01.47.02.7.02,1.51.05,3.02.11,4.53.15,3.37.12,6.73.21,10.04.26,2.51.05,5.02.02,7.41-.08,1.2-.05,2.37-.15,3.43-.3a6.9,6.9,0,0,0,2.3-.57,11.214,11.214,0,0,0,1.94-1.41c.6-.52,1.23-1.1,1.85-1.73.18-.17.35-.35.52-.53.35-.36.69-.74,1.02-1.12.86-.94,1.69-1.92,2.52-2.93.37-.46.75-.92,1.12-1.39,1.8-2.27,3.59-4.66,5.32-7.07,1.18-1.63,2.34-3.28,3.46-4.9l.06-.1a5.489,5.489,0,0,1,2.22-1.88c1.42.06,2.81.12,4.19.18h.01l1.09.06a3.024,3.024,0,0,1,.33.21A5.639,5.639,0,0,1,402.187,161.43Z" transform="translate(0 -54.953)" fill="#ffb573"/><path d="M399.577,168.07a58.591,58.591,0,0,1-6.33,7.66c-.01,0-.01,0-.01.01-.62.64-1.28,1.3-1.97,1.97l-1.12-.63-9.81-5.52-.91-.51s.64-.95,1.59-2.39c1.19-1.8,2.88-4.37,4.45-6.79,1.22-1.9,2.36-3.71,3.11-4.99a12.94,12.94,0,0,1,3.24-3.7c1.09.03,2.16.07,3.22.11,1.42.06,2.81.12,4.19.18h.01l1.09.06c.94.04,1.87.09,2.79.14C404.377,156.66,404.1,161.39,399.577,168.07Z" transform="translate(0 -54.953)" fill="#407bff"/><path d="M399.577,168.07a58.591,58.591,0,0,1-6.33,7.66c-.01,0-.01,0-.01.01-.62.64-1.28,1.3-1.97,1.97l-1.12-.63-9.81-5.52-.91-.51s.64-.95,1.59-2.39c1.19-1.8,2.88-4.37,4.45-6.79,1.22-1.9,2.36-3.71,3.11-4.99a12.94,12.94,0,0,1,3.24-3.7c1.09.03,2.16.07,3.22.11,1.42.06,2.81.12,4.19.18h.01l1.09.06c.94.04,1.87.09,2.79.14C404.377,156.66,404.1,161.39,399.577,168.07Z" transform="translate(0 -54.953)" fill="#fff" opacity="0.7"/></g><g id="Character_1" data-name="Character 1"><path d="M253.341,415.836a.985.985,0,0,1-.02.17.235.235,0,0,1-.02.08.88.88,0,0,1-.05.15.93.93,0,0,1-.11.19,1.3,1.3,0,0,1-.15.2,5.086,5.086,0,0,1-1.64,1.07c-.15.07-.32.14-.49.21-.48.2-1.02.39-1.63.58-.38.12-.78.23-1.21.35-7.01,1.89-20.45,3.41-37.36,4.25-.66.03-1.32.07-1.98.1-1.08.05-2.17.09-3.28.14l-3.37.12c-.77.03-1.55.05-2.33.08-1.85.05-3.72.1-5.62.13-.23.01-.46.02-.69.02-.43.01-.86.02-1.29.02s-.83.02-1.25.02c-1.75.03-3.52.05-5.3.06-.2,0-.39.01-.58.01h-.01c-1.4.01-2.82.01-4.24.01-5.84,0-11.53-.07-16.97-.22h-.01c-.81-.02-1.62-.05-2.42-.08-.7-.01-1.4-.04-2.09-.06-1.09-.03-2.16-.07-3.22-.11-1.42-.06-2.81-.12-4.19-.18h-.01l-1.09-.06c-.94-.04-1.87-.09-2.79-.14-4.59-.26-8.9-.56-12.86-.92-9.48-.84-16.99-1.93-21.65-3.19-.14-.04-.27-.07-.4-.11-.15-.04-.3-.08-.44-.13-.75-.22-1.4-.45-1.97-.67-.21-.09-.41-.17-.59-.26a8.554,8.554,0,0,1-.87-.47,1.848,1.848,0,0,1-.27-.19c-.08-.06-.15-.11-.22-.17a2.079,2.079,0,0,1-.21-.21,1.245,1.245,0,0,1-.15-.19,1.092,1.092,0,0,1-.16-.35c-.01-.03-.02-.07-.03-.11a.66.66,0,0,1-.01-.14c0-3.26,17.83-6.06,43.37-7.29.68-.03,1.36-.06,2.05-.1.91-.03,1.83-.07,2.76-.11l4.24-.15c.75-.02,1.52-.05,2.29-.07,1.77-.05,3.56-.09,5.38-.13h.29c.51,0,1.03-.01,1.55-.03.35,0,.7-.01,1.05-.01,1.58-.03,3.17-.04,4.78-.05h.01c.15,0,.31-.01.46,0h.01c1.45-.02,2.91-.02,4.38-.02,5.92,0,11.67.08,17.18.22,1.35.04,2.69.08,4.01.13l1.7.06h.02a.757.757,0,0,1,.15.01c.63.02,1.24.04,1.86.07.41.01.81.03,1.22.05,1.07.04,2.12.09,3.16.14h.01l2.97.15c5.72.31,11.02.7,15.76,1.16C243.831,411.326,253.341,413.456,253.341,415.836Z" transform="translate(0 -54.953)" fill="#263238"/><path d="M108.1,415.839c0-3.26,17.831-6.06,43.371-7.29.679-.03,1.359-.06,2.049-.1.911-.03,1.83-.07,2.761-.11,3.829-.15,7.81-.26,11.909-.35.611,0,1.22-.01,1.841-.03.349,0,.7-.01,1.049-.01q4.727-.075,9.641-.07c5.919,0,11.669.08,17.179.22,1.35.04,2.691.08,4.01.13,10.05.33,19.17.9,26.851,1.64,15.069,1.46,24.58,3.59,24.58,5.97,0,1.06-1.891,2.08-5.321,3a129.011,129.011,0,0,0-19.259-2.97c-7.681-.74-16.8-1.31-26.851-1.64-1.319-.05-2.66-.09-4.01-.13-5.51-.14-11.26-.22-17.179-.22q-4.906,0-9.641.07c-.349,0-.7.01-1.049.01-.621.02-1.23.03-1.841.03-4.1.09-8.08.2-11.909.35-.931.04-1.85.08-2.761.11-.69.04-1.37.07-2.049.1-17.23.83-30.94,2.37-38.051,4.29C109.994,417.909,108.1,416.909,108.1,415.839Z" transform="translate(0 -54.953)" fill="#fff" opacity="0.4"/><path d="M174.611,412.146c-.55.66-1.06,1.23-1.57,1.78-.26.27-.51.54-.78.81-.48.49-.95.97-1.44,1.44-.32.32-.65.63-.98.94a53.694,53.694,0,0,1-5.37,4.36c-.11.07-.21.15-.32.22-.28.2-.57.39-.87.59h-.01c-.63.42-1.28.83-1.95,1.21-.7-.01-1.4-.04-2.09-.06-1.09-.03-2.16-.07-3.22-.11-1.42-.06-2.81-.12-4.19-.18h-.01l-1.09-.06c-.94-.04-1.87-.09-2.79-.14-4.59-.26-8.9-.56-12.86-.92.52-.17,1.04-.33,1.56-.5,3.99-1.3,8.02-2.52,11.9-3.8.97-.33,1.93-.65,2.82-.98a11.336,11.336,0,0,0,2.2-1.01c.44-.26.9-.55,1.36-.86.24-.16.49-.33.74-.52h.01c.72-.51,1.44-1.08,2.15-1.67,1.44-1.18,2.85-2.48,4.25-3.83.25-.25.5-.49.75-.74.45-.43.89-.86,1.32-1.31l1.96-2.03.12-.13a5.659,5.659,0,0,1,4.72-1.7,5.6,5.6,0,0,1,4.93,4.95h.01A5.66,5.66,0,0,1,174.611,412.146Z" transform="translate(0 -54.953)" fill="#ffb573"/><path d="M172.367,400.668c-5.576-.127-17.99,13.741-17.99,13.741l10.249,9.077s9.154-3.956,11.4-10.549S172.367,400.668,172.367,400.668Z" transform="translate(0 -54.953)" fill="#407bff"/><path d="M176.026,412.938a15.559,15.559,0,0,1-5.13,6.68,30.464,30.464,0,0,1-6.27,3.87l-2.75-2.44-7.5-6.64s12.411-13.87,17.991-13.74C172.367,400.668,178.266,406.348,176.026,412.938Z" transform="translate(0 -54.953)" fill="#fff" opacity="0.7"/><path d="M170.9,419.618a30.464,30.464,0,0,1-6.27,3.87l-2.75-2.44a24.545,24.545,0,0,1,7.555-10.946C170.651,412.382,171.047,417.228,170.9,419.618Z" transform="translate(0 -54.953)" opacity="0.1"/><path d="M210.911,406.516v.02h-.01v.01c-.06.13-.12.25-.17.38-.16.35-.31.7-.46,1.06a5.718,5.718,0,0,0-.24.57.612.612,0,0,0-.05.12,3.706,3.706,0,0,0-.19.46c-.17.4-.33.81-.49,1.23-.2.52-.39,1.05-.58,1.58-.02.02-.02.05-.03.07-.14.38-.27.76-.4,1.15s-.27.78-.39,1.17a.564.564,0,0,0-.04.12c-.12.36-.24.72-.35,1.08-.23.76-.46,1.52-.68,2.3l-.06.21c-.48,1.7-.93,3.43-1.35,5.17a.425.425,0,0,0-.02.11l-3.37.12c-.77.03-1.55.05-2.33.08-1.85.05-3.72.1-5.62.13-.23.01-.46.02-.69.02-.43.01-.86.02-1.29.02s-.83.02-1.25.02c-1.75.03-3.52.05-5.3.06-.2,0-.39.01-.58.01h-.01c-1.4.01-2.82.01-4.24.01-5.84,0-11.53-.07-16.97-.22h-.01c.05-.25.1-.5.15-.74v-.01c.04-.16.07-.31.11-.46s.06-.3.1-.45a2.25,2.25,0,0,0,.05-.22q.675-2.955,1.4-5.47c.18-.58.34-1.13.51-1.68.06-.17.11-.34.17-.51v-.01c.13-.41.26-.8.39-1.18,0-.01,0-.01.01-.01v-.01c.07-.21.14-.41.21-.61v-.01c.11-.31.22-.62.33-.91.12-.35.25-.69.37-1.01q.165-.435.33-.84v-.01c.21-.51.41-.99.6-1.45.46-1.1.91-2.06,1.33-2.91.08-.14.15-.29.22-.43.15-.29.29-.55.42-.81.18-.32.34-.62.49-.89a1,1,0,0,0,.08-.14c.17-.31.34-.59.49-.83s.28-.44.39-.62c.27-.4.43-.63.47-.68v-.01h.01a71.116,71.116,0,0,1,8.93-.29c.63.01,1.27.05,1.92.09.59.04,1.24.1,1.92.18,1.43.16,3.02.38,4.67.65,1.04.17,2.09.35,3.14.54s2.09.38,3.09.58c.18.03.35.07.53.11h.01c.79.15,1.56.31,2.27.46.49.1.97.21,1.46.33.25.06.49.11.73.18s.48.12.73.18c.91.23,1.81.48,2.66.72.28.08.56.17.83.25.54.16,1.06.32,1.55.48s.94.3,1.36.44c1.55.51,2.58.89,2.73.94A.01.01,0,0,1,210.911,406.516Z" transform="translate(0 -54.953)" fill="#407bff"/><path d="M210.921,406.516l-.01.02h-.01v.01c-.06.13-.12.25-.17.38-.16.35-.32.7-.46,1.06q-.135.285-.24.57h-.01a.564.564,0,0,0-.04.12,3.706,3.706,0,0,0-.19.46c-.17.4-.33.81-.49,1.23-.2.52-.4,1.05-.58,1.58-.02.02-.02.05-.03.07-.14.38-.27.76-.4,1.15s-.27.78-.39,1.17c-.01.02-.02.05-.03.07a.09.09,0,0,0-.01.05c-.12.36-.24.72-.35,1.08-.23.76-.46,1.52-.68,2.3l-.06.21c-.48,1.7-.93,3.43-1.35,5.17a.425.425,0,0,0-.02.11l-3.37.12c-.77.03-1.55.05-2.33.08-1.85.05-3.72.1-5.62.13-.23.01-.46.02-.69.02-.43.01-.86.02-1.29.02s-.83.02-1.25.02c-1.75.03-3.52.05-5.3.06-.2,0-.39.01-.58.01h-.01c-1.4.01-2.82.01-4.24.01-5.84,0-11.53-.07-16.97-.22.05-.25.1-.49.15-.73v-.01c.07-.32.13-.62.2-.92a2.25,2.25,0,0,0,.05-.22q.675-2.955,1.4-5.47c.18-.58.34-1.13.51-1.68.06-.17.11-.34.17-.51v-.01c.13-.41.26-.8.39-1.18,0-.01,0-.01.01-.01v-.01c.07-.21.14-.41.21-.61v-.01c.11-.31.22-.62.33-.91.12-.35.25-.69.37-1.01q.165-.435.33-.84v-.01c.21-.51.41-.99.6-1.45h.01c.46-1.1.91-2.06,1.32-2.91.08-.14.15-.29.22-.43.15-.29.29-.55.42-.81.18-.32.34-.62.49-.89a1,1,0,0,0,.08-.14c.18-.31.35-.59.49-.83s.28-.44.39-.62c.27-.4.43-.63.47-.68l.01-.01a71.116,71.116,0,0,1,8.93-.29c.63.01,1.27.05,1.92.09.59.04,1.24.1,1.92.18,1.43.16,3.02.38,4.67.65,1.04.17,2.09.35,3.14.54s2.09.38,3.09.58c.18.03.35.07.53.11h.01c.79.15,1.56.31,2.27.46.49.1.97.21,1.46.33.25.06.49.11.73.18.25.05.49.11.73.17.91.23,1.81.48,2.66.73.28.08.56.17.83.25.54.16,1.06.32,1.55.48s.94.3,1.36.44c1.55.51,2.58.89,2.73.94a.01.01,0,0,1,.01.01Z" transform="translate(0 -54.953)" fill="#fff" opacity="0.7"/><path d="M192.827,388.452s.315,10.636,1.327,12.215,4.657,2.311,4.657,2.311-8.771,4.36-12.87,3.546-6.075-6.178-6.075-6.178,2.867.115,3.56-.28-.544-7.435-.544-7.435Z" transform="translate(0 -54.953)" fill="#ebb376"/><path d="M183.722,395.276s-.357.525-.357.515c-.22-1.65-.481-3.16-.481-3.16l9.941-4.18s.26,8.57,1.04,11.47C189.805,400.342,185.1,397.362,183.722,395.276Z" transform="translate(0 -54.953)" opacity="0.2"/><path d="M189.432,370.584c2.718,1.414,6.611,6.015,2.344,7.526S184.759,368.153,189.432,370.584Z" transform="translate(0 -54.953)" fill="#263238"/><path d="M177.338,388.277a65.97,65.97,0,0,0,6.8,7.149,11.648,11.648,0,0,0,6.189,2.693c8.056,1,13.18-7.516,9.956-14.546a22.28,22.28,0,0,0-1.258-2.349c-3.5-5.783-10.252-11.851-16.934-9.872A10.386,10.386,0,0,0,177.338,388.277Z" transform="translate(0 -54.953)" fill="#ebb376"/><path d="M180.631,387.805l.324,1.175a22.349,22.349,0,0,0,3.184,6.446,11.648,11.648,0,0,0,6.189,2.693c8.056,1,13.18-7.516,9.956-14.546a22.28,22.28,0,0,0-1.258-2.349s.6,2.812.081,4.126c0,0-3-.767-4.473.461,0,0-3.187-.869-5.887,2.5A6.8,6.8,0,0,1,180.631,387.805Z" transform="translate(0 -54.953)" fill="#263238"/><path d="M180.631,387.805l.324,1.175a22.349,22.349,0,0,0,3.184,6.446,11.648,11.648,0,0,0,6.189,2.693c8.056,1,13.18-7.516,9.956-14.546a22.28,22.28,0,0,0-1.258-2.349s.6,2.812.081,4.126c0,0-3-.767-4.473.461,0,0-3.187-.869-5.887,2.5A6.8,6.8,0,0,1,180.631,387.805Z" transform="translate(0 -54.953)" fill="#fff" opacity="0.5"/><path d="M168.968,384.537c-3.628-3.043-.187-7.453,3.611-8.957a2.077,2.077,0,0,0,1.041-.822l4.508,6.928c-.411.2-.818.382-1.2.532,0,0,5.263,4.667,4.752,9.305C174.307,393.558,167.207,389.773,168.968,384.537Z" transform="translate(0 -54.953)" fill="#263238"/><path d="M178.925,395a7.041,7.041,0,0,0,5.332,1.075,3.892,3.892,0,0,0,.523-.146l.009-.011c1.519-1.426-2.982-6.456-3.212-6.717l-.011-.009a3.464,3.464,0,0,0-2.894.4A3.244,3.244,0,0,0,178.925,395Z" transform="translate(0 -54.953)" fill="#ebb376"/><path d="M187.555,382.8c.378.482.937.67,1.25.419s.261-.843-.117-1.325-.937-.669-1.25-.419S187.177,382.318,187.555,382.8Z" transform="translate(0 -54.953)" fill="#263238"/><path d="M192.965,378.47c.378.482.938.67,1.251.419s.26-.843-.117-1.325-.938-.669-1.251-.419S192.588,377.989,192.965,378.47Z" transform="translate(0 -54.953)" fill="#263238"/><path d="M191.433,380.086a21.111,21.111,0,0,0,5.441,2.115c-.246,1.42-1.971,2.207-1.971,2.207Z" transform="translate(0 -54.953)" fill="#d58745"/><path d="M185.411,379.076a.363.363,0,0,0-.185.314,2.9,2.9,0,0,1-1.132,2.353.364.364,0,0,0-.11.5.356.356,0,0,0,.494.108,3.607,3.607,0,0,0,1.463-2.956.357.357,0,0,0-.354-.363A.349.349,0,0,0,185.411,379.076Z" transform="translate(0 -54.953)" fill="#263238"/><path d="M193.852,374.556a.355.355,0,0,0,.122-.168.362.362,0,0,0-.216-.462,3.549,3.549,0,0,0-3.248.37.365.365,0,0,0-.068.507.355.355,0,0,0,.5.07,2.765,2.765,0,0,1,2.576-.265A.356.356,0,0,0,193.852,374.556Z" transform="translate(0 -54.953)" fill="#263238"/><path d="M194.845,390.99c.184-.07.373-.163.562-.256l.489-3.942s-.234-.008-.6.012c-1.247.032-4.013.275-4.748,1.692a2.865,2.865,0,0,0-.187.511,2.771,2.771,0,0,0,.132,1.92C190.942,391.772,192.144,392.208,194.845,390.99Z" transform="translate(0 -54.953)" fill="#263238"/><path d="M190.36,389.007l4.807-1.741.128-.462c-1.247.032-4.013.275-4.748,1.692A2.865,2.865,0,0,0,190.36,389.007Z" transform="translate(0 -54.953)" fill="#fff"/><path d="M194.845,390.99c-.848-1.395-3.086-.678-4.353-.063C190.942,391.772,192.144,392.208,194.845,390.99Z" transform="translate(0 -54.953)" fill="#de5753"/><path d="M168.968,384.537c-1.476-1.134-3.643-4.211-.743-7.406s6.336-4.776,4.716-7.1,1.247-4.3,3.264-2.778c0,0,4.754-7.775,8.131-1.805,0,0,3.313-2.278,5.34.168s2.457,5.069-.214,6.009-2.925,1.223-2.462,2.77-1.86,2.832-1.86,2.832,1.436-.918.623-2.028a3.6,3.6,0,0,1-2.782,2.787c-2.591.814-1.393,3.335-1.393,3.335s-1.384.541-1.691-1.437c0,0-1.08,4.415-3.945,5.512S171.2,386.252,168.968,384.537Z" transform="translate(0 -54.953)" fill="#263238"/><path d="M206.771,418.046c-.48,1.7-.93,3.43-1.35,5.17a.425.425,0,0,0-.02.11l-3.37.12c-.77.03-1.55.05-2.33.08-1.85.05-3.72.1-5.62.13-.23.01-.46.02-.69.02-.43.01-.86.02-1.29.02s-.83.02-1.25.02a17.275,17.275,0,0,1,5.02-5.79,10.944,10.944,0,0,1,1.16-.77,8.514,8.514,0,0,1,2.67-.93A9.7,9.7,0,0,1,206.771,418.046Z" transform="translate(0 -54.953)" opacity="0.1"/><path d="M213.481,414.736a5.592,5.592,0,0,1-.89,2.75c-1.27,1.96-2.56,3.86-3.91,5.7-1.08.05-2.17.09-3.28.14l-3.37.12c-.77.03-1.55.05-2.33.08-1.85.05-3.72.1-5.62.13.11-.12.2-.24.3-.36,1.8-2.27,3.59-4.66,5.32-7.07.49-.67.97-1.35,1.44-2.03.69-.96,1.35-1.92,2.01-2.87l.07-.1a5.636,5.636,0,0,1,6.57-2.09,5.489,5.489,0,0,1,1.27.66A5.625,5.625,0,0,1,213.481,414.736Z" transform="translate(0 -54.953)" fill="#ffb573"/><path d="M214.051,414.766a21.58,21.58,0,0,1-3.39,8.32c-.66.03-1.32.07-1.98.1-1.08.05-2.17.09-3.28.14l-3.37.12c-.77.03-1.55.05-2.33.08-1.85.05-3.72.1-5.62.13-.23.01-.46.02-.69.02-.43.01-.86.02-1.29.02,1.11-1.68,2.48-3.78,3.77-5.77.88-1.38,1.72-2.7,2.4-3.82.26-.42.5-.82.71-1.17a12.787,12.787,0,0,1,4.64-4.65h.01a13.457,13.457,0,0,1,7.27-1.74,6.794,6.794,0,0,1,2.1,2.16A8.936,8.936,0,0,1,214.051,414.766Z" transform="translate(0 -54.953)" fill="#407bff"/><path d="M214.051,414.766a21.58,21.58,0,0,1-3.39,8.32c-.66.03-1.32.07-1.98.1-1.08.05-2.17.09-3.28.14l-3.37.12c-.77.03-1.55.05-2.33.08-1.85.05-3.72.1-5.62.13-.23.01-.46.02-.69.02-.43.01-.86.02-1.29.02,1.11-1.68,2.48-3.78,3.77-5.77.88-1.38,1.72-2.7,2.4-3.82.26-.42.5-.82.71-1.17a12.787,12.787,0,0,1,4.64-4.65h.01a13.457,13.457,0,0,1,7.27-1.74,6.794,6.794,0,0,1,2.1,2.16A8.936,8.936,0,0,1,214.051,414.766Z" transform="translate(0 -54.953)" fill="#fff" opacity="0.7"/></g></svg>