<svg xmlns="http://www.w3.org/2000/svg" viewBox="0 0 500 372.609"><g id="Background_Complete" data-name="Background Complete"><rect y="327.446" width="500" height="0.25" fill="#ebebeb"/><rect x="416.779" y="343.542" width="33.122" height="0.25" fill="#ebebeb"/><rect x="333.381" y="343.542" width="70.806" height="0.25" fill="#ebebeb"/><rect x="275.141" y="334.256" width="19.192" height="0.25" fill="#ebebeb"/><rect x="52.459" y="335.936" width="34.29" height="0.25" fill="#ebebeb"/><rect x="95.652" y="335.936" width="62.348" height="0.25" fill="#ebebeb"/><rect x="188.333" y="340.158" width="36.814" height="0.25" fill="#ebebeb"/><path d="M237.014,337.8H43.915a5.715,5.715,0,0,1-5.708-5.708V60.66a5.714,5.714,0,0,1,5.708-5.707h193.1a5.714,5.714,0,0,1,5.707,5.707V332.092A5.715,5.715,0,0,1,237.014,337.8ZM43.915,55.2a5.463,5.463,0,0,0-5.458,5.457V332.092a5.464,5.464,0,0,0,5.458,5.458h193.1a5.463,5.463,0,0,0,5.457-5.458V60.66a5.463,5.463,0,0,0-5.457-5.457Z" transform="translate(0 -54.953)" fill="#ebebeb"/><path d="M453.31,337.8h-193.1a5.714,5.714,0,0,1-5.707-5.708V60.66a5.713,5.713,0,0,1,5.707-5.707h193.1a5.714,5.714,0,0,1,5.709,5.707V332.092A5.715,5.715,0,0,1,453.31,337.8ZM260.212,55.2a5.463,5.463,0,0,0-5.457,5.457V332.092a5.463,5.463,0,0,0,5.457,5.458h193.1a5.464,5.464,0,0,0,5.459-5.458V60.66A5.464,5.464,0,0,0,453.31,55.2Z" transform="translate(0 -54.953)" fill="#ebebeb"/><rect x="64.316" y="74.779" width="259.113" height="156.781" transform="translate(387.746 251.386) rotate(180)" fill="#e6e6e6"/><rect x="60.273" y="74.779" width="261.399" height="156.781" transform="translate(381.946 251.386) rotate(180)" fill="#f5f5f5"/><rect x="120.425" y="29.727" width="141.096" height="246.885" transform="translate(344.143 -92.756) rotate(90)" fill="#fafafa"/><polygon points="294.885 168.765 241.729 27.669 219.348 27.669 272.504 168.765 294.885 168.765" fill="#fff"/><polygon points="266.16 168.765 213.003 27.669 197.592 27.669 250.749 168.765 266.16 168.765" fill="#fff"/><polygon points="172.245 168.765 119.088 27.669 103.677 27.669 156.833 168.765 172.245 168.765" fill="#fff"/><rect x="54.818" y="148.841" width="141.096" height="8.658" transform="translate(278.536 -27.15) rotate(90)" fill="#e6e6e6"/><rect x="191.831" y="148.841" width="141.096" height="8.658" transform="translate(415.549 -164.162) rotate(90)" fill="#e6e6e6"/><rect x="46.711" y="147.27" width="151.903" height="10.944" transform="translate(275.404 -24.873) rotate(90)" fill="#f5f5f5"/><rect x="183.724" y="147.27" width="151.903" height="10.944" transform="translate(412.417 -161.886) rotate(90)" fill="#f5f5f5"/><rect x="-2.632" y="152.784" width="141.096" height="0.77" transform="translate(221.085 30.301) rotate(90)" fill="#e6e6e6"/><rect x="56.291" y="64.694" width="275.965" height="2" rx="0.967" transform="translate(388.546 76.434) rotate(180)" fill="#e6e6e6"/><path d="M323.43,68.493h0a1.267,1.267,0,0,0,1.263-1.263V64.157a1.267,1.267,0,0,0-1.263-1.263h0a1.267,1.267,0,0,0-1.264,1.263V67.23A1.267,1.267,0,0,0,323.43,68.493Z" transform="translate(0 -54.953)" fill="#e6e6e6"/><path d="M71.341,68.493h0a1.267,1.267,0,0,0,1.264-1.263V64.157a1.267,1.267,0,0,0-1.264-1.263h0a1.266,1.266,0,0,0-1.263,1.263V67.23A1.266,1.266,0,0,0,71.341,68.493Z" transform="translate(0 -54.953)" fill="#e6e6e6"/><rect x="57.525" y="65.694" width="261.266" height="111.866" transform="translate(376.317 188.301) rotate(180)" fill="#ebebeb" opacity="0.6"/><rect x="368.922" y="106.81" width="66.144" height="67.629" transform="translate(803.987 226.297) rotate(180)" fill="#e0e0e0"/><rect x="364.934" y="106.81" width="68.39" height="67.629" transform="translate(798.257 226.297) rotate(180)" fill="#f5f5f5"/><rect x="372.987" y="112.159" width="52.283" height="56.931" transform="translate(258.504 484.8) rotate(-90)" fill="#fff"/><rect x="416.159" y="260.668" width="18.507" height="116.117" transform="translate(850.826 582.501) rotate(180)" fill="#f0f0f0"/><rect x="227.208" y="376.785" width="203.905" height="5.613" transform="translate(658.321 704.231) rotate(180)" fill="#f0f0f0"/><rect x="223.654" y="205.716" width="192.505" height="116.117" fill="#f5f5f5"/><rect x="416.159" y="255.77" width="18.507" height="4.898" transform="translate(850.826 461.485) rotate(180)" fill="#e6e6e6"/><rect x="223.654" y="200.817" width="192.505" height="4.898" fill="#f0f0f0"/><path d="M409.505,301.249h-179.2v-30.3h179.2Zm-177.952-1.244H408.261V272.194H231.553Z" transform="translate(0 -54.953)" fill="#e0e0e0"/><path d="M409.505,366.5h-179.2V308.677h179.2Zm-177.952-1.244H408.261V309.921H231.553Z" transform="translate(0 -54.953)" fill="#e0e0e0"/><rect x="254.452" y="271.572" width="130.91" height="3.984" transform="translate(639.814 492.176) rotate(180)" fill="#e0e0e0"/><rect x="254.452" y="309.299" width="130.91" height="3.984" transform="translate(639.814 567.63) rotate(180)" fill="#e0e0e0"/><rect x="294.066" y="198.697" width="71.14" height="2.12" fill="#e0e0e0"/><polygon points="365.207 198.697 294.066 198.697 300.914 157.969 372.054 157.969 365.207 198.697" fill="#e0e0e0"/><polygon points="363.886 198.697 292.746 198.697 299.593 157.969 370.734 157.969 363.886 198.697" fill="#ebebeb"/><path d="M295.448,250.449l5.822-34.63a.914.914,0,0,1,.9-.763H367.13a.915.915,0,0,1,.9,1.066l-5.822,34.63a.916.916,0,0,1-.9.763H296.35A.914.914,0,0,1,295.448,250.449Z" transform="translate(0 -54.953)" fill="#fafafa"/><rect x="277.971" y="198.697" width="71.141" height="2.12" fill="#f0f0f0"/><path d="M169.072,242.881h-38.05c-8.579,0-16.319,7.428-18.343,17.6l-6.364,32.006-13.079-.051H93.2c-6.235,0-11.591,5.334-12.762,12.71L78.69,316.108c-2.632.457-4.888,2.876-5.525,6.08h78.594c8.571,0,16.3-7.421,18.325-17.588l9.14-45.959C180.86,250.413,176.009,242.881,169.072,242.881ZM91.821,316.023H82.153l1.622-10.1c.864-5.433,4.825-9.383,9.42-9.383h.034l12.271.048-1.55,7.8C102.612,311.111,97.494,316.023,91.821,316.023Z" transform="translate(0 -54.953)" fill="#e6e6e6"/><polygon points="150.138 267.235 152.899 267.235 158.13 327.446 155.369 327.446 150.138 267.235" fill="#e0e0e0"/><polygon points="139.778 267.235 142.539 267.235 147.77 327.446 145.009 327.446 139.778 267.235" fill="#e0e0e0"/><polygon points="85.168 267.235 82.407 267.235 77.176 327.446 79.937 327.446 85.168 267.235" fill="#e0e0e0"/><polygon points="95.528 267.235 92.767 267.235 87.536 327.446 90.297 327.446 95.528 267.235" fill="#e0e0e0"/></g><g id="Shadow"><ellipse id="_Path_" data-name="&lt;Path&gt;" cx="250" cy="361.285" rx="193.889" ry="11.323" fill="#f5f5f5"/></g><g id="Progress_indicator" data-name="Progress indicator"><rect x="117" y="23.548" width="265.999" height="118.439" rx="13.487" fill="#407bff"/><rect x="117" y="23.548" width="265.999" height="118.439" rx="13.487" fill="#fff" opacity="0.6"/><rect x="193.78" y="7.72" width="112.439" height="260" rx="10.487" transform="translate(387.72 -167.233) rotate(90)" fill="#fff" opacity="0.9"/><path d="M226.247,129.008V121.85h2.7a6.6,6.6,0,0,1,1.089.068,2.15,2.15,0,0,1,.883.335,1.753,1.753,0,0,1,.574.691,2.331,2.331,0,0,1-.364,2.522,2.788,2.788,0,0,1-2.1.632h-1.836v2.91Zm.947-3.755h1.85a1.961,1.961,0,0,0,1.3-.341,1.22,1.22,0,0,0,.386-.962,1.282,1.282,0,0,0-.228-.769,1.056,1.056,0,0,0-.6-.423,4.081,4.081,0,0,0-.884-.063h-1.831Z" transform="translate(0 -54.953)" fill="#263238"/><path d="M232.794,129.008v-5.185h.791v.786a2.145,2.145,0,0,1,.56-.728.972.972,0,0,1,.563-.175,1.715,1.715,0,0,1,.9.283l-.3.815a1.257,1.257,0,0,0-.644-.19.833.833,0,0,0-.518.173.94.94,0,0,0-.327.481,3.413,3.413,0,0,0-.147,1.025v2.715Z" transform="translate(0 -54.953)" fill="#263238"/><path d="M235.807,126.416a2.672,2.672,0,0,1,.8-2.134,2.413,2.413,0,0,1,1.631-.576,2.325,2.325,0,0,1,1.748.7,2.668,2.668,0,0,1,.679,1.936,3.444,3.444,0,0,1-.3,1.575,2.135,2.135,0,0,1-.875.891,2.539,2.539,0,0,1-1.252.318,2.328,2.328,0,0,1-1.76-.7A2.786,2.786,0,0,1,235.807,126.416Zm.9,0a2.2,2.2,0,0,0,.435,1.491,1.447,1.447,0,0,0,2.183,0,2.261,2.261,0,0,0,.434-1.519,2.137,2.137,0,0,0-.437-1.457,1.449,1.449,0,0,0-2.18,0A2.2,2.2,0,0,0,236.71,126.416Z" transform="translate(0 -54.953)" fill="#263238"/><path d="M241.535,129.438l.854.127a.814.814,0,0,0,.3.576,1.462,1.462,0,0,0,.894.244,1.567,1.567,0,0,0,.942-.244,1.193,1.193,0,0,0,.449-.683,5.6,5.6,0,0,0,.064-1.128,1.809,1.809,0,0,1-1.436.678,1.956,1.956,0,0,1-1.655-.771,2.97,2.97,0,0,1-.586-1.851,3.461,3.461,0,0,1,.268-1.369,2.149,2.149,0,0,1,.779-.97,2.1,2.1,0,0,1,1.2-.341,1.86,1.86,0,0,1,1.514.742v-.625h.81v4.482a4.257,4.257,0,0,1-.246,1.716,1.818,1.818,0,0,1-.781.8,2.719,2.719,0,0,1-1.317.293,2.478,2.478,0,0,1-1.5-.418A1.412,1.412,0,0,1,241.535,129.438Zm.727-3.115a2.251,2.251,0,0,0,.405,1.489,1.338,1.338,0,0,0,2.032,0,2.183,2.183,0,0,0,.41-1.463,2.127,2.127,0,0,0-.422-1.435,1.306,1.306,0,0,0-1.019-.484,1.271,1.271,0,0,0-1,.476A2.119,2.119,0,0,0,242.262,126.323Z" transform="translate(0 -54.953)" fill="#263238"/><path d="M247.248,129.008v-5.185h.791v.786a2.133,2.133,0,0,1,.559-.728.975.975,0,0,1,.564-.175,1.712,1.712,0,0,1,.9.283l-.3.815a1.255,1.255,0,0,0-.644-.19.833.833,0,0,0-.518.173.94.94,0,0,0-.327.481,3.413,3.413,0,0,0-.146,1.025v2.715Z" transform="translate(0 -54.953)" fill="#263238"/><path d="M254.137,127.338l.908.113a2.213,2.213,0,0,1-.8,1.235,2.694,2.694,0,0,1-3.288-.261,2.735,2.735,0,0,1-.667-1.966,2.867,2.867,0,0,1,.674-2.031,2.281,2.281,0,0,1,1.748-.722,2.215,2.215,0,0,1,1.7.708,2.815,2.815,0,0,1,.659,1.992c0,.052,0,.13,0,.234H251.2a1.989,1.989,0,0,0,.483,1.309,1.438,1.438,0,0,0,1.084.454,1.345,1.345,0,0,0,.825-.254A1.689,1.689,0,0,0,254.137,127.338Zm-2.885-1.421h2.895a1.75,1.75,0,0,0-.332-.981,1.349,1.349,0,0,0-1.089-.508,1.4,1.4,0,0,0-1.018.405A1.605,1.605,0,0,0,251.252,125.917Z" transform="translate(0 -54.953)" fill="#263238"/><path d="M255.8,127.46l.87-.136a1.208,1.208,0,0,0,.407.8,1.419,1.419,0,0,0,.935.279,1.372,1.372,0,0,0,.9-.247.737.737,0,0,0,.293-.578.533.533,0,0,0-.259-.469,3.834,3.834,0,0,0-.9-.3,8.361,8.361,0,0,1-1.34-.422,1.278,1.278,0,0,1-.759-1.189,1.331,1.331,0,0,1,.159-.642,1.406,1.406,0,0,1,.432-.491,1.806,1.806,0,0,1,.558-.257,2.705,2.705,0,0,1,.76-.1,3.008,3.008,0,0,1,1.072.175,1.463,1.463,0,0,1,.681.476,1.879,1.879,0,0,1,.3.8l-.86.117a.94.94,0,0,0-.339-.625,1.24,1.24,0,0,0-.793-.225,1.443,1.443,0,0,0-.865.2.583.583,0,0,0-.259.469.49.49,0,0,0,.108.308.77.77,0,0,0,.337.234c.088.033.346.108.776.225a11.012,11.012,0,0,1,1.3.407,1.324,1.324,0,0,1,.578.462,1.287,1.287,0,0,1,.21.752,1.469,1.469,0,0,1-.257.828,1.658,1.658,0,0,1-.739.6,2.686,2.686,0,0,1-1.094.213,2.44,2.44,0,0,1-1.54-.42A1.956,1.956,0,0,1,255.8,127.46Z" transform="translate(0 -54.953)" fill="#263238"/><path d="M260.8,127.46l.87-.136a1.208,1.208,0,0,0,.407.8,1.419,1.419,0,0,0,.935.279,1.372,1.372,0,0,0,.9-.247.737.737,0,0,0,.293-.578.533.533,0,0,0-.259-.469,3.834,3.834,0,0,0-.9-.3,8.361,8.361,0,0,1-1.34-.422,1.278,1.278,0,0,1-.759-1.189,1.331,1.331,0,0,1,.159-.642,1.406,1.406,0,0,1,.432-.491,1.806,1.806,0,0,1,.558-.257,2.705,2.705,0,0,1,.76-.1,3.008,3.008,0,0,1,1.072.175,1.463,1.463,0,0,1,.681.476,1.879,1.879,0,0,1,.3.8l-.86.117a.94.94,0,0,0-.339-.625,1.24,1.24,0,0,0-.793-.225,1.443,1.443,0,0,0-.865.2.583.583,0,0,0-.259.469.49.49,0,0,0,.108.308.77.77,0,0,0,.337.234c.088.033.346.108.776.225a11.012,11.012,0,0,1,1.3.407,1.324,1.324,0,0,1,.578.462,1.287,1.287,0,0,1,.21.752,1.469,1.469,0,0,1-.257.828,1.658,1.658,0,0,1-.739.6,2.686,2.686,0,0,1-1.094.213,2.44,2.44,0,0,1-1.54-.42A1.956,1.956,0,0,1,260.8,127.46Z" transform="translate(0 -54.953)" fill="#263238"/><path d="M266.4,129.008v-1h1v1Z" transform="translate(0 -54.953)" fill="#263238"/><path d="M269.176,129.008v-1h1v1Z" transform="translate(0 -54.953)" fill="#263238"/><path d="M271.955,129.008v-1h1v1Z" transform="translate(0 -54.953)" fill="#263238"/><path d="M369.513,81.5H130.487A10.5,10.5,0,0,0,120,91.987V103.23H380V91.987A10.5,10.5,0,0,0,369.513,81.5Z" transform="translate(0 -54.953)" fill="#407bff" opacity="0.7"/><path d="M140.833,92.365a3.8,3.8,0,1,0-3.8,3.8A3.8,3.8,0,0,0,140.833,92.365Z" transform="translate(0 -54.953)" fill="#fff"/><path d="M155.833,92.365a3.8,3.8,0,1,0-3.8,3.8A3.8,3.8,0,0,0,155.833,92.365Z" transform="translate(0 -54.953)" fill="#fff"/><path d="M170.833,92.365a3.8,3.8,0,1,0-3.8,3.8A3.8,3.8,0,0,0,170.833,92.365Z" transform="translate(0 -54.953)" fill="#fff"/><path d="M362.342,152.342H137.658a3.335,3.335,0,0,1-3.324-3.325h0a3.334,3.334,0,0,1,3.324-3.325H362.342a3.334,3.334,0,0,1,3.324,3.325h0A3.335,3.335,0,0,1,362.342,152.342Z" transform="translate(0 -54.953)" fill="#407bff" opacity="0.1"/><path d="M304.508,152.342H137.658a3.335,3.335,0,0,1-3.324-3.325h0a3.334,3.334,0,0,1,3.324-3.325h166.85a3.334,3.334,0,0,1,3.325,3.325h0A3.335,3.335,0,0,1,304.508,152.342Z" transform="translate(0 -54.953)" fill="#407bff"/></g><g id="Character"><path d="M249.689,188.717l1.007-4.211a1.258,1.258,0,0,0-1.251-1.644H234.234c-2.494-13.682-11.342-23.735-8.794-40.352,5-7.856-12.976-37.066-26.07-19.51-16.926,1.112-1.27,32.87-33.48,40.99-23.69,5.97-36.682,19.723-41.906,31.262a13.365,13.365,0,0,0,6.5,1.688h.6a44.907,44.907,0,0,1,8.229-12.35,107.719,107.719,0,0,0-4.565,12.35H251.163l.288-6.52A1.584,1.584,0,0,0,249.689,188.717Z" transform="translate(0 -54.953)" fill="#407bff" opacity="0.1"/><path d="M214.56,194.63c-1.96,15.2-4.263,45.182-45.867,48.148-27.481,1.949-39.533-24.168-56.833-32.688,1.53-12.48,7.26-25.05,7.46-25.5a48.512,48.512,0,0,0-11.94,23.55,40.361,40.361,0,0,0-6.16-1.75c0-11.76,12.45-34.28,44.67-42.4s16.554-39.878,33.48-40.99c13.094-17.556,31.074,11.654,26.07,19.51C202.22,163.51,217.21,174.02,214.56,194.63Z" transform="translate(0 -54.953)" fill="#263238"/><path d="M230.273,195.206a3.033,3.033,0,0,0-4.945-1.814l-5.034,4.241a2.961,2.961,0,0,0-.487,2.673l.891,2.916a17.014,17.014,0,0,0,6.9-1,4.484,4.484,0,0,0,3.014-5Z" transform="translate(0 -54.953)" fill="#ffb573"/><path d="M201.981,177.717c.2,1.108.467,2.456.731,3.7.272,1.265.544,2.537.851,3.8.593,2.529,1.282,5.026,2.011,7.492q1.137,3.681,2.53,7.18a57.093,57.093,0,0,0,3.223,6.555l-2.578-2.046a2.56,2.56,0,0,0,1.8.356,9.738,9.738,0,0,0,3.31-1.159,26.975,26.975,0,0,0,3.724-2.423c1.229-.917,2.5-2.035,3.626-3.005l.234-.2a3,3,0,0,1,4.678,3.55,30.337,30.337,0,0,1-2.964,4.968,27.667,27.667,0,0,1-4.015,4.434,17.942,17.942,0,0,1-5.87,3.511,13.233,13.233,0,0,1-4.008.749,12.752,12.752,0,0,1-4.357-.648,4.648,4.648,0,0,1-2.364-1.742l-.215-.3a56.762,56.762,0,0,1-4.664-7.88,79.444,79.444,0,0,1-3.385-8.18c-.965-2.755-1.776-5.542-2.482-8.345-.341-1.406-.675-2.811-.949-4.235-.294-1.445-.524-2.8-.747-4.4a6,6,0,0,1,11.843-1.9Z" transform="translate(0 -54.953)" fill="#ffb573"/><path d="M132.319,387.343c-1.55-7.014-1.156-8.656-2.419-12.5a24.958,24.958,0,0,0-2.82-6.19c-1.1-2.046.993-3.677,3.081-3.938,1.626-.2,3.35-.279,5.348-.6l4.324,8.058c-2.282,2.9-4.1,9.968-3.3,15.386C137.1,391.437,132.944,390.15,132.319,387.343Z" transform="translate(0 -54.953)" fill="#407bff"/><path d="M201.955,220.565s1.143,59.277,2.353,92.111c3.178,19.437-63.642,59.9-63.642,59.9-1.43.678-5.212-6.73-5.158-8.457,0,0,28.738-42.33,45.862-52.553-18.95-52.444-13.8-91-13.8-91Z" transform="translate(0 -54.953)" fill="#263238"/><path d="M167.572,220.57h21.687s-4.335,57.94-9.167,87.36C162.662,257.35,167.572,220.57,167.572,220.57Z" transform="translate(0 -54.953)" opacity="0.2"/><path d="M154.162,338.979c8.23-10.269,17.75-20.959,25.4-26.239-1.09,10.16-2.21,22.42-3.07,34.97-7.19,5.69-14.65,10.98-20.89,15.21A173.022,173.022,0,0,1,154.162,338.979Z" transform="translate(0 -54.953)" opacity="0.2"/><path d="M144.859,371.108c-.873.626-2.422,1.748-3.539,2.623a.851.851,0,0,1-1.189-.14,59.087,59.087,0,0,1-5.59-9.4.85.85,0,0,1,.166-.98l2.8-2.78a.854.854,0,0,1,1.313.132l6.247,9.381A.847.847,0,0,1,144.859,371.108Z" transform="translate(0 -54.953)" fill="#407bff"/><path d="M144.859,371.108c-.873.626-2.422,1.748-3.539,2.623a.851.851,0,0,1-1.189-.14,59.087,59.087,0,0,1-5.59-9.4.85.85,0,0,1,.166-.98l2.8-2.78a.854.854,0,0,1,1.313.132l6.247,9.381A.847.847,0,0,1,144.859,371.108Z" transform="translate(0 -54.953)" fill="#fff" opacity="0.3"/><path d="M177.074,421.238c-7.309,0-6.792-.112-10.911-.25-3.528-.126-4.329.314-7.161.25-2.366-.05-2.483-2.31-1.991-4.91.245-1.306.665-2.9.975-5.011h11.1a12.391,12.391,0,0,0,9.136,5.589C182.2,417.433,179.988,421.238,177.074,421.238Z" transform="translate(0 -54.953)" fill="#407bff"/><path d="M191.644,220.565s-11.484,63.2-15.689,91.85c-4.417,30.085-9.86,78.916-6.866,98.9-1.622.994-7.634,1.055-11.1,0,0,0-17.543-68.609-2.887-97.571-8.34-70.4,3.993-74.07,7.4-93.181Z" transform="translate(0 -54.953)" fill="#263238"/><path d="M169.549,407.155a29.673,29.673,0,0,0,.759,4.105.775.775,0,0,1-.626,1.01c-4,.65-9.971-.292-11.868-.628a.955.955,0,0,1-.749-.707l-.955-3.84a.773.773,0,0,1,.77-.987l11.757.226A.95.95,0,0,1,169.549,407.155Z" transform="translate(0 -54.953)" fill="#407bff"/><path d="M169.549,407.155a29.673,29.673,0,0,0,.759,4.105.775.775,0,0,1-.626,1.01c-4,.65-9.971-.292-11.868-.628a.955.955,0,0,1-.749-.707l-.955-3.84a.773.773,0,0,1,.77-.987l11.757.226A.95.95,0,0,1,169.549,407.155Z" transform="translate(0 -54.953)" fill="#fff" opacity="0.3"/><path d="M192.648,165.208c7.28,1.372,8.821,4.348,14.182,15.4-1.618,7.274-10.321,13.668-10.321,13.668S180.642,174.612,192.648,165.208Z" transform="translate(0 -54.953)" fill="#fff"/><path d="M162.5,220.565c-6.835,9.324-14.269,24.213-14.33,56.213,35.5,16,52.384,16,60.828,12-6.091-24.675-7.045-68.213-7.045-68.213C196.333,214.333,162.5,220.565,162.5,220.565Z" transform="translate(0 -54.953)" fill="#407bff"/><path d="M186.444,248.667c-3.111,11.5.074,23,2.815,25.555C187.381,267.583,186.444,248.667,186.444,248.667Z" transform="translate(0 -54.953)" opacity="0.2"/><path d="M204.19,178.985c.12,3.879-.261,8.568-1.132,17.8-.588,7.821,1.36,22.689-1.1,23.777-6.216,1.748-22.545.947-39.453,0-.8-11.2-.5-18.913-7.586-43.92a9.2,9.2,0,0,1,7.869-11.959c1.563-.159,3.221-.291,4.923-.373a125.606,125.606,0,0,1,17.915,0c1.947.177,3.965.422,5.894.69A14.851,14.851,0,0,1,204.19,178.985Z" transform="translate(0 -54.953)" fill="#fff"/><path d="M174.072,146.944c.981,5.891-1.633,13.522-5.379,17.369,0,0,5.46-.82,17.051,6.349,3.357-4.814.864-6.349.864-6.349-3.108-.6-3.111-2.877-1.886-7.256Z" transform="translate(0 -54.953)" fill="#ffb573"/><path d="M183.307,169.218c-3.818.544-5.013,6.31-5.013,6.31s-9.171-6.486-12.077-11.06a37.567,37.567,0,0,0,3.349-2.126S181.078,167.014,183.307,169.218Z" transform="translate(0 -54.953)" fill="#407bff"/><path d="M186.936,168.6s3.031.656,4.552,4.872c.874-8.407-3.112-9.181-3.112-9.181a4.463,4.463,0,0,0-3.5-.715C187.905,165.178,186.936,168.6,186.936,168.6Z" transform="translate(0 -54.953)" fill="#407bff"/><path d="M184.72,157.06l-6.25-5.94c.11,1.05.28,2.25.51,3.46a13.13,13.13,0,0,0,5.1,7.69C183.78,161.07,184.08,159.36,184.72,157.06Z" transform="translate(0 -54.953)" opacity="0.2"/><path d="M176.488,133.431c-2.448,9.148-3.673,12.959-.815,19.281,4.3,9.51,15.733,11.053,20.782,2.95,4.545-7.293,7.784-21.029.465-27.947A12.13,12.13,0,0,0,176.488,133.431Z" transform="translate(0 -54.953)" fill="#ffb573"/><path d="M180.178,124.518c1.417,10.941,15.822,4.557,24.572,17.228C203.917,130.917,193.325,115.619,180.178,124.518Z" transform="translate(0 -54.953)" fill="#263238"/><path d="M181.083,124.112c12.3,8.221-1.167,14.883-10.25,14.385C167.833,129.417,181.083,124.112,181.083,124.112Z" transform="translate(0 -54.953)" fill="#263238"/><path d="M187.292,140.309a4.768,4.768,0,0,0-3.157-1.812A9.424,9.424,0,0,0,187.292,140.309Z" transform="translate(0 -54.953)" opacity="0.2"/><path d="M186.81,141.032a3.924,3.924,0,0,0-3.181-.875A7.759,7.759,0,0,0,186.81,141.032Z" transform="translate(0 -54.953)" opacity="0.2"/><path d="M189.111,141.2c-.238.759-.05,1.524.42,1.709s1.046-.281,1.285-1.04.05-1.524-.42-1.709S189.35,140.445,189.111,141.2Z" transform="translate(0 -54.953)" fill="#263238"/><path d="M197.926,144.81c-.239.759-.051,1.524.42,1.708s1.046-.281,1.284-1.04.051-1.524-.42-1.708S198.164,144.051,197.926,144.81Z" transform="translate(0 -54.953)" fill="#263238"/><path d="M198.989,143.73l1.895.153S199.549,144.959,198.989,143.73Z" transform="translate(0 -54.953)" fill="#263238"/><path d="M195.065,145.087a23.37,23.37,0,0,0,1.044,5.85,3.167,3.167,0,0,1-2.727-.5Z" transform="translate(0 -54.953)" fill="#ed893e"/><path d="M188.359,151.62a7.424,7.424,0,0,0,1.174.583.212.212,0,0,0,.281-.14.249.249,0,0,0-.142-.306,6.6,6.6,0,0,1-3.912-4.173.222.222,0,1,0-.431.1A6.95,6.95,0,0,0,188.359,151.62Z" transform="translate(0 -54.953)" fill="#263238"/><path d="M172.015,139.52a6.509,6.509,0,0,0,2.025,4.856c1.691,1.47,3.629-.345,4.074-2.889.4-2.29,0-5.815-2.134-6.263C173.875,134.782,172,137.081,172.015,139.52Z" transform="translate(0 -54.953)" fill="#ffb573"/><path d="M188.843,136.246a.422.422,0,0,0,.348-.051,3.4,3.4,0,0,1,3.208-.346.425.425,0,0,0,.587-.221.5.5,0,0,0-.244-.63,4.247,4.247,0,0,0-4.061.39.474.474,0,0,0-.116.648A.49.49,0,0,0,188.843,136.246Z" transform="translate(0 -54.953)" fill="#263238"/><path d="M202.16,141.709a.426.426,0,0,0,.334.006.458.458,0,0,0,.225-.61,4.866,4.866,0,0,0-3.16-2.933.422.422,0,0,0-.513.362.5.5,0,0,0,.374.56,3.886,3.886,0,0,1,2.479,2.35A.494.494,0,0,0,202.16,141.709Z" transform="translate(0 -54.953)" fill="#263238"/><path d="M190.174,140.125l1.895.153S190.734,141.353,190.174,140.125Z" transform="translate(0 -54.953)" fill="#263238"/><path d="M160.813,179.631l-3.016,6.2c-1,2.088-1.971,4.191-2.9,6.282-.914,2.1-1.814,4.195-2.584,6.264a51.16,51.16,0,0,0-1.884,6.017l-.187-2.476a3.024,3.024,0,0,0,.518,1.186,13.537,13.537,0,0,0,1.431,1.881,43.373,43.373,0,0,0,4,3.919c1.462,1.3,3.021,2.566,4.605,3.826s3.242,2.512,4.812,3.733l.09.071a3,3,0,0,1-2.795,5.222,61.181,61.181,0,0,1-6.108-2.447,65.728,65.728,0,0,1-5.874-3.073,41.92,41.92,0,0,1-5.706-4.016,24.223,24.223,0,0,1-2.783-2.76,13.749,13.749,0,0,1-2.519-4.271,4.431,4.431,0,0,1-.239-2.06l.052-.416a49.538,49.538,0,0,1,1.712-7.92c.714-2.5,1.567-4.876,2.476-7.223.893-2.352,1.9-4.631,2.932-6.89,1.06-2.27,2.122-4.438,3.387-6.706a6,6,0,0,1,10.644,5.532Z" transform="translate(0 -54.953)" fill="#ffb573"/><path d="M162.418,164.733c-6.5-.016-9.346,1.514-16.533,13.452,1.606,5.125,11.909,11.405,11.909,11.405S168.9,175.265,162.418,164.733Z" transform="translate(0 -54.953)" fill="#fff"/><path d="M173.272,224.46l-.335-2.925a3.427,3.427,0,0,0-1.745-2.607l-4.527-2.5a6.386,6.386,0,0,0-5.857-.168l-1.154.554c.224,4.889,4.069,10.006,4.069,10.006l.933,1.581a2.85,2.85,0,0,0,3.9,1.1l3.156-1.81A3.284,3.284,0,0,0,173.272,224.46Z" transform="translate(0 -54.953)" fill="#ffb573"/><path d="M223.818,206.389H189.542a1.257,1.257,0,0,1-1.25-1.644l4.841-20.239a2.223,2.223,0,0,1,2.036-1.644h34.276a1.258,1.258,0,0,1,1.251,1.644l-4.841,20.239A2.224,2.224,0,0,1,223.818,206.389Z" transform="translate(0 -54.953)" fill="#407bff"/><path d="M189.673,204.764a.236.236,0,0,1-.058-.007.25.25,0,0,1-.185-.3l4.516-18.879a2.482,2.482,0,0,1,2.28-1.836h32.635a.25.25,0,0,1,0,.5H196.226a1.984,1.984,0,0,0-1.794,1.452l-4.516,18.879A.25.25,0,0,1,189.673,204.764Z" transform="translate(0 -54.953)" fill="#fff"/><path d="M229.133,188.862l-.458.208a4.305,4.305,0,0,0-2.514,3.524l-.275,4.267a2.957,2.957,0,0,0,3.063,3.25l.281,0a1.967,1.967,0,0,0,1.876-1.878l.345-7.81A1.6,1.6,0,0,0,229.133,188.862Z" transform="translate(0 -54.953)" fill="#ffb573"/></g><g id="Plant"><path d="M334.066,372.638c-3.275-14.657,3.272-49.832,6.032-57.788s21.684-17.48,33.186-22.63,32.559,8.871,32.559,8.871-21.863-2.3-28.146.837-19.657,12.726-24.046,20.938S334.773,355.443,334.066,372.638Z" transform="translate(0 -54.953)" fill="#263238"/><path d="M294.14,316.113c15.047,1.579,27.39,11.872,31.312,15.027s5.475,15.723,6.059,23.233-11.547,16.542-11.547,16.542,5.693-11.845,5.194-16.011-3.207-13.626-6.946-17.749S306.2,322.216,294.14,316.113Z" transform="translate(0 -54.953)" fill="#263238"/><path d="M329.9,363.13c1.41-20.54-8.414-34.069-7.014-50.326s19.737-52.547,21.32-62.8c3.053,9.081-10.209,52.745-9.63,64.6S341.4,350.32,329.9,363.13Z" transform="translate(0 -54.953)" fill="#407bff"/><path d="M329.9,363.13c1.41-20.54-8.414-34.069-7.014-50.326s19.737-52.547,21.32-62.8c3.053,9.081-10.209,52.745-9.63,64.6S341.4,350.32,329.9,363.13Z" transform="translate(0 -54.953)" fill="#fff" opacity="0.6"/><path d="M314.9,283.49a13.313,13.313,0,0,1,10.588,9.317,14.218,14.218,0,0,1-13.594,4.841c-6.678-1.236-9.02-4.963-8.19-8.873S308.219,282.255,314.9,283.49Z" transform="translate(0 -54.953)" fill="#407bff"/><path d="M335.748,293.687a8.834,8.834,0,0,1-7.876,5.056,9.436,9.436,0,0,1-.609-9.558c2.007-4.035,4.813-4.849,7.156-3.606S337.755,289.652,335.748,293.687Z" transform="translate(0 -54.953)" fill="#407bff"/><path d="M331.23,328.376a8.834,8.834,0,0,1,2.268,9.08,9.437,9.437,0,0,1-9.25-2.483c-3.18-3.193-3.053-6.112-1.125-7.934S328.049,325.182,331.23,328.376Z" transform="translate(0 -54.953)" fill="#407bff"/><path d="M339.261,347.139a5.46,5.46,0,0,1-5.738.733,5.831,5.831,0,0,1,2.2-5.5c2.19-1.721,3.972-1.431,4.95-.116S341.452,345.419,339.261,347.139Z" transform="translate(0 -54.953)" fill="#407bff"/><path d="M345.5,318.616a12.327,12.327,0,0,1-12.458,3.917,13.168,13.168,0,0,1,2.687-13.09c4.182-4.7,8.258-4.763,10.956-2.23S349.684,313.92,345.5,318.616Z" transform="translate(0 -54.953)" fill="#407bff"/><path d="M330.745,363.814a.6.6,0,0,1-.094-.009.5.5,0,0,1-.4-.585c7.1-37.084.5-69.282-19.6-95.7a.5.5,0,1,1,.8-.606c20.28,26.653,26.936,59.118,19.782,96.493A.5.5,0,0,1,330.745,363.814Z" transform="translate(0 -54.953)" fill="#263238"/><path d="M312.98,255.977a15.5,15.5,0,0,1,1.873,16.311,16.554,16.554,0,0,1-15.521-6.43c-4.8-6.279-3.916-11.327-.148-14.056S308.177,249.7,312.98,255.977Z" transform="translate(0 -54.953)" fill="#407bff"/><rect x="300.329" y="372.156" width="15.721" height="1" transform="matrix(0.07, -0.998, 0.998, 0.07, -85.209, 598.935)" fill="#407bff"/><rect x="303.652" y="388.822" width="6.698" height="1" transform="translate(-102.94 613.241) rotate(-85.969)" fill="#407bff"/><polygon points="356.343 297.882 312.611 297.882 308.087 361.328 360.867 361.328 356.343 297.882" fill="#407bff"/><path d="M367.276,408.723a24.562,24.562,0,1,1,24.562-24.563A24.591,24.591,0,0,1,367.276,408.723Zm0-47.124a22.562,22.562,0,1,0,22.562,22.561A22.588,22.588,0,0,0,367.276,361.6Z" transform="translate(0 -54.953)" fill="#407bff"/></g></svg>